<?xml version="1.0" encoding="UTF-8"?><!DOCTYPE svg PUBLIC "-//W3C//DTD SVG 1.1//EN" "http://www.w3.org/Graphics/SVG/1.1/DTD/svg11.dtd"><svg xmlns="http://www.w3.org/2000/svg"><symbol id="arrowemptyr" viewBox="0 0 6.6 10.4"><path fill="#fff" d="M1.4 0L0 1.4l3.8 3.8L0 9l1.4 1.4 5.2-5.2z"/></symbol><symbol id="arrowfullr" viewBox="7.7 0 6 12"><path fill="#fff" d="M7.7 0v12l6-6z"/></symbol><symbol id="behance" viewBox="0 0 19.2 12"><style type="text/css">.st0{fill:#3D3D3D;}</style><path class="st0" d="M7.7 5.4s1.8-.1 1.8-2.2S8.1 0 6.2 0H0v11.8h6.2s3.8.1 3.8-3.5c0 0 .1-2.9-2.3-2.9zm-5-3.3h3.5s.8 0 .8 1.2-.5 1.4-1 1.4H2.7V2.1zM6 9.7H2.7V6.5h3.5s1.3 0 1.3 1.6c0 1.4-1 1.6-1.5 1.6zM15 3c-4.6 0-4.6 4.5-4.6 4.5S10.1 12 15 12c0 0 4.1.2 4.1-3.1H17s.1 1.3-1.9 1.3c0 0-2.1.1-2.1-2h6.2c0-.1.6-5.2-4.2-5.2zm-2 3.5s.3-1.8 2.1-1.8 1.8 1.8 1.8 1.8H13zM17.4.7h-4.9v1.4h4.9V.7z"/></symbol><symbol id="cross" viewBox="0 0 22.6 22.6"><path fill="#3D3D3D" d="M22.6 1.4L21.2 0l-9.9 9.9L1.4 0 0 1.4l9.9 9.9L0 21.2l1.4 1.4 9.9-9.9 9.9 9.9 1.4-1.4-9.9-9.9z"/></symbol><symbol id="facebook" viewBox="0 0 7.2 16"><style type="text/css">.st0{fill:#3D3D3D;}</style><path class="st0" d="M1.6 3.1v2.2H0V8h1.6v8h3.2V8h2.1s.2-1.3.3-2.7H4.8V3.5c0-.3.3-.6.7-.6h1.7V0H4.8C1.5 0 1.6 2.7 1.6 3.1"/></symbol><symbol id="linkedin" viewBox="0 0 17 16"><style type="text/css">.st0{fill:#3D3D3D;}</style><path class="st0" d="M17 9.8V16h-3.6v-5.8c0-1.5-.5-2.4-1.8-2.4-1 0-1.6.7-1.9 1.3-.2.2-.2.5-.2.9v6H5.9V5.2h3.6v1.5C10 6 10.9 5 12.8 5 15.2 5 17 6.5 17 9.8M2.1 0C.8 0 0 .8 0 1.9c0 1 .8 1.9 2 1.9 1.3 0 2.1-.8 2.1-1.9C4.1.8 3.3 0 2.1 0M.2 16h3.6V5.2H.2V16z"/></symbol><symbol id="logo" viewBox="0 0 47 28"><style type="text/css">.st0{fill:#EF3F2B;}</style><path class="st0" d="M16 8.5c2.3.5 4.6-1.1 5.1-3.4S20 .5 17.7.1c-2.3-.5-4.6 1.1-5.1 3.4s1.1 4.5 3.4 5zm-2.8 8c1-.6 1.7-1.6 2-2.8.5-2.3-1.1-4.6-3.4-5-2.4-.5-4.7 1-5.1 3.3 0 .2-.1.5-.1.7 0 0 0 4.8-4.5 7.3-1 .6-1.8 1.6-2 2.8-.5 2.3 1.1 4.6 3.4 5 2.3.5 4.6-1.1 5.1-3.4 0-.2.1-.4.1-.7 0 .2-.1-4.5 4.5-7.2zm33.7 6.4c-.2-1.2-1-2.2-2-2.8-4.5-2.5-4.5-7.3-4.5-7.3V12.1c0-.1-.1-.2-.1-.4v-.1s-.1-.2-.1-.3c-.2-.4-.4-.8-.6-1.1v-.1l-.2-.2-.1-.1-.1-.1-.2-.2c-.4-.3-.8-.5-1.2-.7-.1 0-.2-.1-.3-.1h-.1c-.1 0-.2-.1-.4-.1h-.1c-.1 0-.2 0-.4-.1h-1s-.2 0-.4.1H35c-.1 0-.2.1-.4.1h-.1s-.2.1-.3.1c-.4.2-.8.4-1.2.7l-.2.2-.1.1-.1.1-.2.2c-.3.3-.5.7-.7 1.1 0 .1-.1.2-.1.3v.1s-.1.2-.1.4v.1s0 .2-.1.3V12.7s0 3.1-2.3 5.6c-2.3-2.5-2.3-5.6-2.3-5.6 0-.2 0-.5-.1-.7-.4-1.9-2-3.3-3.9-3.4H22c-1.9.2-3.5 1.5-3.9 3.4 0 .2-.1.5-.1.7 0 0 0 4.8-4.5 7.3-1 .6-1.8 1.6-2 2.8-.5 2.3 1.1 4.6 3.4 5 2.3.5 4.6-1.1 5.1-3.4 0-.2.1-.4.1-.7 0 0 0-3 2.3-5.6 2 2.2 2.2 4.8 2.3 5.4v.5s0 .2.1.3v.1c0 .1.1.2.1.4v.1c0 .1.1.2.1.3.2.5.5 1 .9 1.4l.1.1.1.1.2.2h.1c.3.3.7.5 1.1.6.1 0 .2.1.3.1h.1c.1 0 .2.1.4.1H30.1c.1 0 .2-.1.4-.1h.1c.1 0 .2-.1.3-.1.4-.2.8-.4 1.1-.6h.1l.2-.2.1-.1.1-.1.2-.2c.3-.3.5-.7.7-1.1 0-.1.1-.2.1-.3 0-.1.1-.3.1-.4v-.1s0-.2.1-.4v-.4c0-.6.3-3.2 2.3-5.4 2.3 2.6 2.3 5.6 2.3 5.6 0 .2 0 .4.1.7.5 2.3 2.7 3.8 5.1 3.4 2.4-.5 3.9-2.8 3.4-5.1z"/></symbol><symbol id="menu" viewBox="0 0 30 18"><style type="text/css">.st0{fill:#3D3D3D;}</style><path class="st0" d="M0 10h30V8H0v2zM10 0v2h20V0H10zM0 18h30v-2H0v2z"/></symbol><symbol id="pinterest" viewBox="0 0 14 18"><style type="text/css">.st0{fill:#3D3D3D;}</style><path class="st0" d="M7.4 0C2.5 0 0 3.5 0 6.5c0 1.8.7 3.4 2.1 3.9.2.1.5 0 .5-.3 0-.2.2-.6.2-.8.1-.3 0-.3-.1-.6-.4-.4-.7-1.1-.7-2 0-2.6 2-5 5.1-5 2.8 0 4.3 1.7 4.3 4 0 3-1.3 5.5-3.3 5.5-1.1 0-1.9-.9-1.6-2 .3-1.3.9-2.7.9-3.7C7.4 4.7 7 4 6 4 4.9 4 4 5.2 4 6.7c0 1 .3 1.6.3 1.6S3.2 13.1 3 14c-.4 1.7-.1 3.7 0 3.9 0 .1.2.1.3 0 .1-.1 1.4-1.8 1.9-3.4.1-.5.7-2.8.7-2.8.3.7 1.4 1.3 2.5 1.3 3.3 0 5.6-3 5.6-7.1 0-3-2.6-5.9-6.6-5.9z"/></symbol><symbol id="redline" viewBox="0 0 34 2"><style type="text/css">.st0{fill:#EF3F2B;}</style><path class="st0" d="M0 0h34v2H0z"/></symbol><symbol id="sipkafulld" viewBox="4.708 3 12 6"><style type="text/css">.st0{fill:#FFFFFF;}</style><path class="st0" d="M16.708 3h-12l6 6z"/></symbol><symbol id="slideshare" viewBox="0 0 24 16"><style type="text/css">.st0{fill:#3D3D3D;}</style><path class="st0" d="M23.6 5.5c-.9 1.7-2.8 2.3-4.7 3.2v3.7c0 .5-.7 3.6-3.3 3.6-2.6 0-3.5-1.5-3.5-2.1v-3.5c-.3-.1-.5-.1-.8-.3v3.7c0 .6-1 1.5-2.3 1.5s-3.8-1.8-3.8-3v-4S1.7 7 .9 6C.1 5-.3 4.6-.1 4.1.1 3.5 2.7 5.7 4.2 6c1.5.4 4.1.5 5.3.5 1.1 0 1.7.4 2.4 1l.1.1v-.4c0-.5 1.4-.7 2.3-.7h3.8c.4 0 3.9-1.1 4.7-2 .9-.9 1.7-.7.8 1m-7.9-.3c1.5 0 2.6-1.2 2.6-2.6 0-1.4-1.2-2.6-2.6-2.6C14.2 0 13 1.2 13 2.6c0 1.5 1.2 2.6 2.7 2.6m-7 0c1.5 0 2.6-1.2 2.6-2.6 0-1.4-1.2-2.6-2.6-2.6C7.2 0 6 1.2 6 2.6c0 1.5 1.2 2.6 2.7 2.6"/></symbol><symbol id="snail" viewBox="4.5 -4 11 20"><path d="M15.5 10.5c0 3-2.5 5.5-5.5 5.5s-5.5-2.5-5.5-5.5V0c0-2.2 1.8-4 4-4s4 1.8 4 4v8.5c0 1.4-1.1 2.5-2.5 2.5S7.5 9.9 7.5 8.5V1H9v7.5c0 .6.4 1 1 1s1-.4 1-1V0c0-1.4-1.1-2.5-2.5-2.5S6-1.4 6 0v10.5c0 2.2 1.8 4 4 4s4-1.8 4-4V1h1.5v9.5z"/></symbol><symbol id="twitter" viewBox="0 0 19.2 12.8"><style type="text/css">.st0{fill:#3D3D3D;}</style><path class="st0" d="M17 5.7c1.1-.1 1.8-.6 2.1-1.2-.4.2-1.6.5-2.3.2 0-.2-.1-.3-.1-.4-.5-1.8-2.2-3.3-4.1-3.1.1-.1.3-.1.4-.2.2-.1 1.4-.3 1.2-.7-.2-.4-1.6.3-1.9.3.4-.1.9-.4 1-.8-.5.1-1.1.3-1.5.7.2-.2.3-.3.3-.6-1.5.9-2.3 2.7-3 4.5-.5-.5-1-.9-1.5-1.1-1-.4-2.5-1.1-4.7-1.9-.1.7.3 1.7 1.6 2.3-.3 0-.8 0-1.2.1.2.9.7 1.6 2.2 1.9-.7 0-1 .2-1.3.5.3.6 1 1.3 2.4 1.1-1.6.7-.7 1.8.5 1.6-2 2-5.3 1.9-7.1.2 4.8 6.4 15.3 3.8 16.9-2.4 1.2 0 1.9-.4 2.3-.8-.7.1-1.7 0-2.2-.2"/></symbol></svg>