<?xml version="1.0" standalone="no"?>
<!DOCTYPE svg PUBLIC "-//W3C//DTD SVG 1.1//EN" "http://www.w3.org/Graphics/SVG/1.1/DTD/svg11.dtd" >
<svg xmlns="http://www.w3.org/2000/svg">
<metadata></metadata>
<defs>
<font id="adria_groteskblack" horiz-adv-x="1196" >
<font-face units-per-em="2048" ascent="1538" descent="-510" />
<missing-glyph horiz-adv-x="491" />
<glyph horiz-adv-x="0" />
<glyph horiz-adv-x="682" />
<glyph unicode=" "  horiz-adv-x="491" />
<glyph unicode="&#x09;" horiz-adv-x="491" />
<glyph unicode="&#xa0;" horiz-adv-x="491" />
<glyph unicode="!" horiz-adv-x="593" d="M492 1337l-50 -915h-292l-48 915h390zM440 31q-53 -47 -143 -47t-143 47q-52 49 -52 133q0 85 52 131q52 49 143 49t143 -49q52 -46 52 -131q0 -84 -52 -133z" />
<glyph unicode="&#x22;" horiz-adv-x="813" d="M371 1337l-29 -471l-209 -41l-31 512h269zM711 1337l-25 -405l-217 -41l-27 446h269z" />
<glyph unicode="#" horiz-adv-x="1421" d="M1309 653h-162l-31 -157h193v-287h-248l-41 -209h-332l41 209h-178l-41 -209h-332l41 209h-106v287h161l31 157h-192v287h247l41 211h332l-41 -211h178l41 211h332l-41 -211h107v-287zM784 496l31 157h-178l-31 -157h178z" />
<glyph unicode="$" horiz-adv-x="1282" d="M1182 1276l-58 -293q-201 59 -379 59q-256 0 -256 -96q0 -30 19 -51t59 -34t79 -20.5t102.5 -18.5t105.5 -21q61 -12 109.5 -28.5t98.5 -45.5t83.5 -67.5t54.5 -97t21 -130.5q0 -179 -120.5 -293t-344.5 -149v-246h-226v229q-245 3 -452 88l57 293q201 -59 393 -59 q287 0 287 108q0 30 -18.5 51t-59 34t-78.5 21t-103 19t-107 21q-97 22 -177 55q-83 34 -135.5 115.5t-52.5 195.5q0 190 130 304t372 139v244h225v-240q200 -15 371 -86z" />
<glyph unicode="%" horiz-adv-x="1521" d="M385 1364q299 0 299 -305t-324 -305q-299 0 -299 305t324 305zM1112 1364l160 -102l-862 -1289l-158 103zM440 1059q0 55 -15 77.5t-52 22.5t-52.5 -22.5t-15.5 -77.5q0 -54 15.5 -77.5t52.5 -23.5t52 23.5t15 77.5zM1161 584q299 0 299 -305q0 -306 -323 -306 q-299 0 -299 306q0 305 323 305zM1217 279q0 55 -15.5 77.5t-52.5 22.5t-52.5 -22.5t-15.5 -77.5q0 -54 15.5 -77.5t52.5 -23.5t52.5 23.5t15.5 77.5z" />
<glyph unicode="&#x26;" horiz-adv-x="1544" d="M1483 315l-68 -342l-241 146q-184 -146 -472 -146q-278 0 -439 114.5t-161 311.5q0 226 209 340q-110 134 -110 271q0 161 144.5 257.5t402.5 96.5q200 0 395 -53l-60 -314q-134 35 -276 35q-219 0 -219 -88q0 -55 118.5 -147.5t403.5 -261.5q29 85 29 172h274 q0 -175 -53 -320zM733 281q74 0 141 20q-263 168 -385 268q-30 -47 -30 -94q0 -82 74 -138t200 -56z" />
<glyph unicode="'" horiz-adv-x="473" d="M371 1337l-27 -438l-213 -41l-29 479h269z" />
<glyph unicode="(" horiz-adv-x="731" d="M475 1536l242 -43q-197 -459 -197 -954q0 -522 197 -981l-242 -43q-342 429 -342 1001q0 591 342 1020z" />
<glyph unicode=")" horiz-adv-x="731" d="M256 -485l-242 43q197 459 197 954q0 522 -197 981l242 43q342 -429 342 -1001q0 -591 -342 -1020z" />
<glyph unicode="*" horiz-adv-x="763" d="M682 1038l-178 -20l133 -121l-178 -129l-76 164l-76 -168l-178 129l137 125l-184 20l68 209l159 -88l-37 178h220l-35 -180l157 90z" />
<glyph unicode="+" horiz-adv-x="1032" d="M956 774v-270h-294v-303h-291v303h-295v270h295v305h291v-305h294z" />
<glyph unicode="," horiz-adv-x="479" d="M205 -297l-174 35l106 555h326z" />
<glyph unicode="-" horiz-adv-x="806" d="M76 645h655v-270h-655v270z" />
<glyph unicode="." horiz-adv-x="593" d="M440 31q-53 -47 -143 -47t-143 47q-52 49 -52 133q0 85 52 131q52 49 143 49t143 -49q52 -46 52 -131q0 -84 -52 -133z" />
<glyph unicode="/" horiz-adv-x="854" d="M539 1337h315l-537 -1337h-317z" />
<glyph unicode="0" horiz-adv-x="1361" d="M682 1364q143 0 253.5 -38.5t176.5 -104.5q65 -65 105 -158q36 -89 49.5 -177.5t13.5 -209.5q0 -118 -13.5 -207.5t-49.5 -181.5q-128 -314 -535 -314q-143 0 -255.5 40t-178.5 106q-62 63 -103 157q-36 89 -49.5 178t-13.5 208q0 120 13.5 209.5t49.5 181.5 q128 311 537 311zM479 657q0 -194 45 -275t150 -81q114 0 162.5 90t48.5 295q0 190 -45 270t-150 80q-115 0 -163 -88t-48 -291z" />
<glyph unicode="1" horiz-adv-x="899" d="M424 1337h319v-1337h-389v971l-284 -56l-50 256z" />
<glyph unicode="2" horiz-adv-x="1257" d="M594 315h549v-315h-1071v287q690 343 690 608q0 140 -205 143q-202 0 -428 -100l-55 279q243 147 553 147q247 0 380.5 -95.5t133.5 -273.5q0 -358 -547 -680z" />
<glyph unicode="3" horiz-adv-x="1286" d="M154 987l-56 279q124 44 275 69q176 29 295 29q225 0 357 -82.5t132 -230.5q0 -210 -233 -324q284 -129 284 -360q0 -178 -157 -287q-155 -107 -422 -107q-133 0 -297 27q-154 25 -260 72l57 293q180 -64 401 -64q131 0 204 34.5t73 92.5q0 136 -369 186l41 220 q109 -13 187 -29q90 59 90 133q0 52 -52.5 82.5t-148.5 30.5q-203 0 -401 -64z" />
<glyph unicode="4" horiz-adv-x="1323" d="M1272 631v-316h-172v-315h-389v315h-615l-55 269l393 753h440l-460 -706h297v233l389 33v-266h172z" />
<glyph unicode="5" horiz-adv-x="1290" d="M1120 1022h-616l-31 -203q127 53 277 53q214 0 331 -109t117 -306q0 -229 -166.5 -356.5t-468.5 -127.5q-271 0 -502 99l58 293q180 -64 383 -64q301 0 301 166q0 66 -49.5 103.5t-139.5 37.5q-123 0 -215 -53l-297 59l140 723h878v-315z" />
<glyph unicode="6" horiz-adv-x="1304" d="M1130 1276l-57 -293q-161 53 -289 53q-140 0 -210 -57t-93 -186q129 69 303 69q203 0 315.5 -110t112.5 -308q0 -225 -144 -348t-398 -123q-294 0 -448 167.5t-154 486.5q0 341 170 538q172 199 475 199q245 0 417 -88zM668 301q68 0 108.5 40.5t40.5 111.5 q0 145 -162 145q-86 0 -184 -43q18 -254 197 -254z" />
<glyph unicode="7" horiz-adv-x="1116" d="M20 1337h1020l56 -278q-428 -470 -428 -1059h-410q30 584 512 1022h-750v315z" />
<glyph unicode="8" horiz-adv-x="1382" d="M1022 748q283 -126 283 -365q0 -196 -163.5 -303t-459.5 -107q-281 0 -442.5 98.5t-161.5 266.5q0 109 71.5 203t200.5 157q-217 120 -217 306q0 170 150.5 265t416.5 95q256 0 401.5 -84t145.5 -231q0 -187 -225 -301zM684 1042q-67 0 -108 -22.5t-41 -58.5 q0 -32 32 -54q43 -29 169 -66q5 -1 8 -2l7.5 -2.5t8.5 -2.5q86 50 86 110q0 43 -45 70.5t-117 27.5zM696 295q91 0 149 33.5t58 83.5q0 31 -18.5 53.5t-67.5 46.5q-61 31 -78 37l-110 39l-23 8q-127 -71 -127 -160q0 -62 60 -101.5t157 -39.5z" />
<glyph unicode="9" horiz-adv-x="1304" d="M174 61l57 293q161 -53 289 -53q139 0 209 57.5t94 186.5q-131 -70 -303 -70q-203 0 -315.5 110t-112.5 308q0 225 144.5 348t398.5 123q294 0 448 -167.5t154 -485.5q0 -342 -172 -541q-170 -197 -473 -197q-246 0 -418 88zM487 885q0 -146 162 -146q87 0 185 43 q-18 254 -197 254q-68 0 -109 -40t-41 -111z" />
<glyph unicode=":" horiz-adv-x="593" d="M440 524q-53 -47 -143 -47t-143 47q-52 49 -52 133q0 85 52 131q53 50 143 50t143 -50q52 -46 52 -131q0 -84 -52 -133zM440 31q-53 -47 -143 -47t-143 47q-52 49 -52 133q0 85 52 131q52 49 143 49t143 -49q52 -46 52 -131q0 -84 -52 -133z" />
<glyph unicode=";" horiz-adv-x="638" d="M485 524q-53 -47 -143 -47t-143 47q-52 49 -52 133q0 85 52 131q53 50 143 50t143 -50q52 -46 52 -131q0 -84 -52 -133zM205 -297l-174 35l106 555h326z" />
<glyph unicode="&#x3c;" horiz-adv-x="929" d="M854 1106v-313l-457 -154l457 -154v-313l-778 320v296z" />
<glyph unicode="=" horiz-adv-x="950" d="M76 975h798v-270h-798v270zM76 573h798v-270h-798v270z" />
<glyph unicode="&#x3e;" horiz-adv-x="929" d="M76 1106l778 -318v-296l-778 -320v313l456 154l-456 154v313z" />
<glyph unicode="?" horiz-adv-x="1146" d="M117 958l-60 291q236 115 514 115q252 0 383 -113t131 -303q0 -82 -29 -150.5t-73 -109.5q-42 -39 -104 -65q-102 -42 -205 -56v-145h-293l-49 270q140 22 229 58q123 51 123 157q0 129 -182 129q-140 0 -385 -78zM391 295q52 49 144 49q91 0 143 -49q51 -45 51 -131 q0 -85 -51 -133q-53 -47 -143 -47q-91 0 -144 47q-51 48 -51 133q0 86 51 131z" />
<glyph unicode="@" horiz-adv-x="2070" d="M1427 -266l31 -156q-147 -63 -418 -63q-446 0 -714 256q-265 256 -265 712q0 446 256 711q254 266 717 266q440 0 707 -258q268 -259 268 -680q0 -261 -122 -405t-347 -144q-255 0 -356 168q-116 -168 -316 -168q-179 0 -272.5 130t-93.5 380q0 258 136 388t437 130 q226 0 424 -67v-506q0 -244 148 -244q170 0 170 338q0 350 -207 563t-576 213q-359 0 -571 -215q-211 -214 -211 -600q0 -369 209 -587q211 -220 590 -220q233 0 376 58zM1126 391v326q-24 4 -49 4q-188 0 -188 -238q0 -105 36.5 -164t104.5 -59q46 0 103 31q-7 54 -7 100z " />
<glyph unicode="A" horiz-adv-x="1449" d="M1038 0l-67 217h-492l-67 -217h-400l449 1337h528l449 -1337h-400zM578 532h294l-147 476z" />
<glyph unicode="B" horiz-adv-x="1445" d="M156 0v1337h675q233 0 354.5 -93t121.5 -271q0 -201 -162 -289q223 -79 223 -319q0 -179 -121 -272t-354 -93h-737zM774 1022h-229v-201h229q131 0 131 103q0 98 -131 98zM545 518v-203h291q131 0 131 99q0 50 -34 77t-97 27h-291z" />
<glyph unicode="C" horiz-adv-x="1267" d="M1186 1276l-58 -293q-168 53 -303 53q-346 0 -346 -377q0 -358 334 -358q132 0 315 53l58 -293q-204 -88 -457 -88q-323 0 -487 174t-164 515q0 346 165 524t488 178q251 0 455 -88z" />
<glyph unicode="D" horiz-adv-x="1435" d="M156 0v1337h549q153 0 272.5 -38.5t191.5 -104.5q71 -64 111 -156q40 -87 55 -174t15 -202q0 -112 -15.5 -198t-54.5 -173q-134 -291 -575 -291h-549zM545 1022v-721h96q164 0 235.5 86t71.5 283q0 189 -71.5 270.5t-235.5 81.5h-96z" />
<glyph unicode="E" horiz-adv-x="1337" d="M1247 1022h-702v-174h590v-316h-590v-217h702v-315h-1091v1337h1091v-315z" />
<glyph unicode="F" horiz-adv-x="1257" d="M1217 1022h-672v-205h590v-315h-590v-502h-389v1337h1061v-315z" />
<glyph unicode="G" horiz-adv-x="1357" d="M850 676h389v-586q-221 -117 -508 -117q-155 0 -278 40t-195 106q-69 66 -111 157q-40 88 -54.5 177t-14.5 209t14 210t53 181q138 311 572 311q265 0 469 -88l-58 -293q-186 53 -337 53q-174 0 -243 -88t-69 -293q0 -201 62 -278q64 -76 225 -76q44 0 84 4v371z" />
<glyph unicode="H" horiz-adv-x="1507" d="M963 1337h389v-1337h-389v528h-418v-528h-389v1337h389v-493h418v493z" />
<glyph unicode="I" horiz-adv-x="700" d="M545 1337v-1337h-389v1337h389z" />
<glyph unicode="J" horiz-adv-x="1028" d="M506 1337h389v-882q0 -238 -133 -360t-391 -122q-179 0 -330 62l55 293q88 -31 185 -31q225 0 225 174v866z" />
<glyph unicode="K" horiz-adv-x="1515" d="M156 0v1337h389v-1337h-389zM999 676l474 -676h-457l-443 662l445 675h448z" />
<glyph unicode="L" horiz-adv-x="1216" d="M545 315h641v-315h-1030v1337h389v-1022z" />
<glyph unicode="M" horiz-adv-x="1939" d="M1868 0h-400l-84 788l-192 -788h-444l-193 788l-84 -788h-399l174 1337h504l221 -817l219 817h504z" />
<glyph unicode="N" horiz-adv-x="1550" d="M1006 1337h389v-1337h-459l-391 784v-784h-389v1337h458l392 -784v784z" />
<glyph unicode="O" horiz-adv-x="1429" d="M727 1364q153 0 269.5 -38.5t185.5 -104.5q64 -63 104 -158q39 -88 52.5 -176t13.5 -211q0 -703 -645 -703q-152 0 -270 40t-189 106q-70 70 -107 157q-36 89 -49.5 177.5t-13.5 208.5q0 702 649 702zM479 657q0 -194 54 -275t182 -81q127 0 181 90.5t54 294.5 q0 192 -53 271t-182 79q-124 0 -180 -90.5t-56 -288.5z" />
<glyph unicode="P" horiz-adv-x="1363" d="M156 0v1337h598q277 0 418 -121.5t141 -359.5q0 -233 -141.5 -353t-417.5 -120h-209v-383h-389zM545 1022v-324h145q117 0 169 38t52 126q0 85 -52 122.5t-169 37.5h-145z" />
<glyph unicode="Q" horiz-adv-x="1429" d="M575 -195l33 172q-128 12 -226.5 57t-158.5 111q-55 64 -90 154q-55 155 -55 363q0 702 649 702q153 0 269.5 -38.5t185.5 -104.5q64 -63 104 -158q39 -88 52.5 -176t13.5 -211q0 -660 -572 -701q178 -81 432 -81v-355q-195 0 -372 74q-175 70 -265 192zM479 657 q0 -194 54 -275t182 -81q127 0 181 90.5t54 294.5q0 192 -53 271t-182 79q-124 0 -180 -90.5t-56 -288.5z" />
<glyph unicode="R" horiz-adv-x="1454" d="M926 0l-213 383h-168v-383h-389v1337h628q277 0 418 -121.5t141 -359.5q0 -299 -227 -410l266 -446h-456zM545 1022v-324h176q117 0 169 38t52 126q0 85 -52 122.5t-169 37.5h-176z" />
<glyph unicode="S" horiz-adv-x="1282" d="M1182 1276l-58 -293q-201 59 -379 59q-256 0 -256 -96q0 -30 19 -51t59 -34t79 -20.5t102.5 -18.5t105.5 -21q61 -12 109.5 -28.5t98.5 -45.5t83.5 -67.5t54.5 -97t21 -130.5q0 -219 -177 -339t-497 -120q-256 0 -469 88l57 293q201 -59 393 -59q287 0 287 108 q0 30 -18.5 51t-59 34t-78.5 21t-103 19t-107 21q-97 22 -177 55q-83 34 -135.5 115.5t-52.5 195.5q0 215 167 332t470 117q248 0 461 -88z" />
<glyph unicode="T" horiz-adv-x="1155" d="M1135 1337v-315h-363v-1022h-389v1022h-363v315h1115z" />
<glyph unicode="U" horiz-adv-x="1472" d="M133 1337h389v-845q0 -191 213 -191q215 0 215 191v845h389v-882q0 -235 -154.5 -358.5t-449.5 -123.5q-294 0 -448 123.5t-154 358.5v882z" />
<glyph unicode="V" horiz-adv-x="1445" d="M1036 1337h400l-449 -1337h-528l-449 1337h400l313 -1007z" />
<glyph unicode="W" horiz-adv-x="1882" d="M1481 1337h399l-283 -1337h-489l-158 838l-157 -838h-490l-283 1337h400l155 -829l136 829h479l135 -829z" />
<glyph unicode="X" horiz-adv-x="1443" d="M1419 0h-446l-250 430l-250 -430h-448l430 680l-410 657h434l244 -422l244 422h434l-408 -657z" />
<glyph unicode="Y" horiz-adv-x="1419" d="M1413 1337l-508 -827v-510h-389v510l-510 827h434l271 -489l268 489h434z" />
<glyph unicode="Z" horiz-adv-x="1284" d="M1204 1337v-290l-651 -732h651v-315h-1124v291l655 731h-635v315h1104z" />
<glyph unicode="[" horiz-adv-x="720" d="M707 1239h-224v-1427h224v-271h-574v1968h574v-270z" />
<glyph unicode="\" horiz-adv-x="854" d="M315 1337l539 -1337h-317l-537 1337h315z" />
<glyph unicode="]" horiz-adv-x="720" d="M14 1509h574v-1968h-574v271h224v1427h-224v270z" />
<glyph unicode="^" horiz-adv-x="1011" d="M930 885h-291l-133 209l-133 -209h-291l297 452h256z" />
<glyph unicode="_" horiz-adv-x="942" d="M0 -27h942v-139h-942v139z" />
<glyph unicode="`" horiz-adv-x="387" d="M201 1077l-199 258l326 64l61 -322h-188z" />
<glyph unicode="a" horiz-adv-x="1224" d="M1169 299l54 -264q-95 -62 -236 -62q-209 0 -280 142q-100 -142 -312 -142q-155 0 -241 72.5t-86 200.5q0 328 600 346v14q0 99 -144 99q-149 0 -356 -74l-51 248q216 122 465 122q458 0 458 -426v-180q0 -114 76 -114q32 0 53 18zM670 281l-2 47v121q-98 -7 -157.5 -42 t-59.5 -83q0 -82 110 -82q58 0 109 39z" />
<glyph unicode="b" d="M133 1434h373v-531q101 98 258 98q178 0 272 -127.5t94 -367.5q0 -267 -135.5 -400t-437.5 -133q-223 0 -424 68v1393zM506 692v-432q46 -6 74 -6q78 0 120.5 64t42.5 176q0 221 -149 221q-44 0 -88 -23z" />
<glyph unicode="c" horiz-adv-x="972" d="M866 317l56 -266q-162 -78 -365 -78q-247 0 -374.5 128.5t-127.5 363.5q0 241 131 387q131 149 385 149q192 0 344 -73l-55 -266q-100 32 -188 32q-123 0 -176.5 -50t-53.5 -163q0 -108 49 -154t160 -46q106 0 215 36z" />
<glyph unicode="d" d="M690 1434h373v-1434h-326l-24 121q-115 -148 -293 -148q-166 0 -260 136.5t-94 377.5q0 244 109.5 379t307.5 135q106 0 207 -34v467zM690 283v422q-47 12 -82 12q-155 0 -155 -230q0 -110 37 -173.5t102 -63.5q54 0 98 33z" />
<glyph unicode="e" horiz-adv-x="1116" d="M954 352l52 -248q-92 -61 -222.5 -96t-253.5 -35q-226 0 -350.5 126.5t-124.5 344.5q0 262 138.5 409.5t384.5 147.5q218 0 339 -120.5t121 -366.5q0 -28 -4 -90h-590q11 -75 56.5 -109t146.5 -34q142 0 307 71zM457 612h245q-3 117 -110 117q-108 0 -135 -117z" />
<glyph unicode="f" horiz-adv-x="808" d="M829 1395l-51 -262q-67 24 -119 24q-108 0 -108 -115v-67h203v-287h-203v-688h-373v688h-117v287h117v115q0 191 89.5 280.5t283.5 89.5q163 0 278 -65z" />
<glyph unicode="g" horiz-adv-x="1236" d="M1171 1151l39 -213l-206 -41q106 -87 106 -242q0 -174 -128 -263t-378 -89q-144 0 -252 31q-8 -13 -8 -31q0 -42 88 -57q97 -16 217 -25q119 -9 254 -31q137 -25 222 -101t85 -198q0 -172 -162 -274t-479 -102q-528 0 -528 319q0 149 115 252q-60 51 -60 123 q0 117 115 194q-113 88 -113 252q0 171 128 258.5t378 87.5q192 0 316 -53v76zM772 645q0 98 -168 98t-168 -98t168 -98t168 98zM606 -242q217 0 217 88q0 69 -100 95q-33 9 -98 22q-38 7 -125 21q-76 9 -123 18q-27 -46 -27 -102q0 -75 61 -108.5t195 -33.5z" />
<glyph unicode="h" horiz-adv-x="1230" d="M133 1434h373v-584q118 151 297 151q141 0 223 -97t82 -267v-637h-373v573q0 142 -119 142q-58 0 -110 -43v-672h-373v1434z" />
<glyph unicode="i" horiz-adv-x="647" d="M471 1145q-51 -45 -147 -45q-97 0 -148 45q-53 47 -53 125t53 125q51 45 148 45q96 0 147 -45q53 -47 53 -125t-53 -125zM510 0h-373v975h373v-975z" />
<glyph unicode="j" horiz-adv-x="647" d="M137 975h373v-1090q0 -192 -88 -280q-87 -90 -268 -90q-180 0 -295 65l51 262q61 -24 113 -24q114 0 114 114v1043zM471 1145q-51 -45 -147 -45q-97 0 -148 45q-53 47 -53 125t53 125q51 45 148 45q96 0 147 -45q53 -47 53 -125t-53 -125z" />
<glyph unicode="k" horiz-adv-x="1286" d="M133 0v1434h373v-1434h-373zM938 492l328 -492h-451l-280 483l278 492h442z" />
<glyph unicode="l" horiz-adv-x="638" d="M506 0h-373v1434h373v-1434z" />
<glyph unicode="m" horiz-adv-x="1751" d="M133 975h326l28 -139q113 165 291 165q176 0 250 -159q108 159 301 159q140 0 219.5 -96.5t79.5 -267.5v-637h-373v573q0 142 -106 142q-45 0 -84 -33l2 -45v-637h-373v573q0 142 -106 142q-43 0 -82 -33v-682h-373v975z" />
<glyph unicode="n" horiz-adv-x="1230" d="M133 975h326l30 -148q119 174 314 174q141 0 223 -97t82 -267v-637h-373v573q0 142 -119 142q-58 0 -110 -43v-672h-373v975z" />
<glyph unicode="o" horiz-adv-x="1161" d="M602 1001q248 0 376 -130.5t128 -383.5q0 -514 -547 -514q-248 0 -376 130.5t-128 383.5q0 514 547 514zM580 274q75 0 107 49t32 164t-31.5 164t-105.5 49q-75 0 -107.5 -49t-32.5 -164t32 -164t106 -49z" />
<glyph unicode="p" d="M133 975h326l24 -121q114 147 293 147q166 0 260 -136.5t94 -377.5q0 -244 -109.5 -379t-307.5 -135q-104 0 -207 35v-467h-373v1434zM506 692v-422q46 -12 82 -12q155 0 155 229q0 110 -37 174t-102 64q-54 0 -98 -33z" />
<glyph unicode="q" d="M1063 -459h-373v531q-102 -99 -258 -99q-178 0 -272 128t-94 368q0 267 135.5 399.5t437.5 132.5q226 0 424 -67v-1393zM690 283v432q-47 6 -74 6q-78 0 -120.5 -64t-42.5 -176q0 -221 149 -221q44 0 88 23z" />
<glyph unicode="r" horiz-adv-x="903" d="M852 1012v-344q-251 0 -346 -68v-600h-373v975h326l33 -162q102 199 360 199z" />
<glyph unicode="s" horiz-adv-x="995" d="M78 47l53 248q139 -53 275 -53q141 0 141 57q0 52 -162 84q-45 8 -81.5 18.5t-79 33t-71 52.5t-47.5 78t-18 109q0 159 124.5 243t358.5 84q193 0 318 -43l-45 -247q-105 24 -236 24q-149 0 -149 -51q0 -36 150 -73q4 -1 6 -2t5.5 -1.5t6.5 -1.5q45 -8 84 -19.5t82 -34.5 t73 -53.5t49.5 -78t18.5 -105.5q0 -160 -128 -251t-355 -91q-216 0 -373 74z" />
<glyph unicode="t" horiz-adv-x="872" d="M758 299l53 -260q-117 -66 -276 -66q-194 0 -283.5 90t-89.5 281v344h-117v252l137 27l56 280h297v-272h202v-287h-202v-297q0 -115 122 -115q53 0 101 23z" />
<glyph unicode="u" horiz-adv-x="1230" d="M725 975h373v-975h-326l-37 137q-120 -164 -307 -164q-141 0 -223 97.5t-82 267.5v637h373v-574q0 -141 116 -141q61 0 113 43v672z" />
<glyph unicode="v" horiz-adv-x="1224" d="M803 975h416l-342 -975h-527l-344 975h418l190 -705z" />
<glyph unicode="w" horiz-adv-x="1660" d="M1266 975h374l-245 -975h-453l-111 557l-112 -557h-453l-246 975h375l129 -651l109 651h395l109 -651z" />
<glyph unicode="x" d="M1176 0h-441l-137 223l-137 -223h-441l357 492l-346 483h432l135 -223l135 223h432l-346 -483z" />
<glyph unicode="y" horiz-adv-x="1245" d="M821 975h418l-395 -1108q-66 -184 -171 -268t-270 -84q-138 0 -253 65l51 262q59 -24 127 -24q132 0 166 102l26 86l-162 -33l-352 1002h418l190 -705z" />
<glyph unicode="z" horiz-adv-x="1071" d="M989 975v-246l-414 -442h414v-287h-874l-47 227l442 461h-412v287h891z" />
<glyph unicode="{" horiz-adv-x="841" d="M827 1505l-49 -254q-44 13 -86 13q-58 0 -81 -23.5t-23 -75.5q0 -25 6 -92q8 -60 8 -106q0 -241 -192 -342q192 -104 192 -359q0 -53 -12 -164t-12 -157q0 -81 26.5 -119.5t91.5 -38.5q42 0 82 12l49 -254q-89 -30 -192 -30q-210 0 -316 112q-104 110 -104 391 q0 93 12 246q15 153 15 172q0 76 -109 76v227q109 0 109 76q0 24 -15 135q-12 114 -12 183q3 403 412 403q109 0 200 -31z" />
<glyph unicode="|" horiz-adv-x="653" d="M485 1434v-1893h-317v1893h317z" />
<glyph unicode="}" horiz-adv-x="841" d="M709 739v-227q-109 0 -109 -76q0 -19 12 -172q15 -153 15 -246q0 -281 -107 -391q-103 -112 -313 -112q-104 0 -193 30l49 254q40 -12 82 -12q65 0 92 38.5t27 119.5q0 46 -12 157t-12 164q0 255 192 359q-192 101 -192 342q0 39 6 106q8 60 8 92q0 52 -23 75.5t-81 23.5 q-43 0 -87 -13l-49 254q91 31 201 31q409 0 412 -403q0 -69 -15 -183q-12 -111 -12 -135q0 -76 109 -76z" />
<glyph unicode="~" horiz-adv-x="991" d="M864 801l51 -269q-103 -65 -215 -65q-76 0 -208 33q-125 32 -197 32q-98 0 -168 -55l-51 268q104 66 215 66q78 0 207 -33q132 -33 198 -33q97 0 168 56z" />
<glyph unicode="&#xa2;" horiz-adv-x="972" d="M866 317l56 -266q-115 -55 -248 -69v-228h-205v223q-205 23 -309.5 149t-104.5 339q0 218 107 359t307 171v211h205v-211q137 -15 241 -67l-55 -266q-100 32 -188 32q-123 0 -176.5 -50t-53.5 -163q0 -108 49 -154t160 -46q106 0 215 36z" />
<glyph unicode="&#xa3;" horiz-adv-x="1187" d="M594 315h512v-315h-973v256q77 18 125.5 78t56.5 141h-182v205h137l-34 80q-7 18 -16 39.5t-14.5 35t-8.5 21.5q-35 98 -35 180q0 157 116.5 242.5t337.5 85.5q254 0 461 -88l-57 -293q-192 53 -295 53q-162 0 -162 -118q0 -34 12 -72q10 -26 39.5 -87t36.5 -79h166v-205 h-143q-15 -89 -80 -160z" />
<glyph unicode="&#xa5;" horiz-adv-x="1419" d="M1413 1329l-420 -676h178v-194h-921v194h176l-420 676h434l271 -506l268 506h434zM250 152v194h921v-194h-266v-152h-389v152h-266z" />
<glyph unicode="&#xa8;" horiz-adv-x="761" d="M276 1130q-44 -38 -116.5 -38t-116.5 38q-45 39 -45 107q0 65 45 104q44 41 116.5 41t116.5 -41q46 -40 46 -104q0 -67 -46 -107zM717 1130q-41 -38 -115 -38q-73 0 -117 38q-43 40 -43 107q0 64 43 104q47 41 117 41q71 0 115 -41q45 -39 45 -104q0 -68 -45 -107z" />
<glyph unicode="&#xa9;" horiz-adv-x="1511" d="M252 166q-191 194 -191 504t191 501q193 193 504 193t501 -193q193 -190 193 -501t-193 -504q-191 -191 -501 -191t-504 191zM223 670q0 -238 146 -387q148 -148 387 -148q240 0 385 148q147 147 147 387q0 241 -145 389q-144 147 -387 147q-240 0 -387 -147 q-146 -149 -146 -389zM1004 1022l-31 -164q-95 33 -176 33q-203 0 -203 -223q0 -211 199 -211q88 0 180 32l31 -163q-115 -50 -259 -50q-370 0 -370 394q0 401 373 401q143 0 256 -49z" />
<glyph unicode="&#xab;" horiz-adv-x="925" d="M455 848l-136 -320l136 -319h-191l-198 319l198 320h191zM827 848l-135 -320l135 -319h-190l-199 319l199 320h190z" />
<glyph unicode="&#xad;" horiz-adv-x="806" d="M76 645h655v-270h-655v270z" />
<glyph unicode="&#xae;" horiz-adv-x="1511" d="M252 1171q193 193 504 193t501 -193q193 -190 193 -501t-193 -504q-191 -191 -501 -191t-504 191q-191 194 -191 504t191 501zM1288 670q0 241 -145 389q-144 147 -387 147q-240 0 -387 -147q-146 -149 -146 -389q0 -238 146 -387q148 -148 387 -148q240 0 385 148 q147 147 147 387zM461 322v698h334q139 0 218 -67.5t79 -186.5q0 -151 -125 -215l145 -229h-252l-106 194h-78v-194h-215zM676 850v-160h84q60 0 85 18.5t25 61.5q0 80 -110 80h-84z" />
<glyph unicode="&#xb4;" horiz-adv-x="387" d="M188 1077h-188l61 322l326 -64z" />
<glyph unicode="&#xb8;" horiz-adv-x="436" d="M82 -174l16 82q308 0 308 -195q0 -96 -69.5 -147t-199.5 -51q-65 0 -112 18l34 182q20 -4 33 -4q80 0 80 53q0 62 -90 62z" />
<glyph unicode="&#xbb;" horiz-adv-x="925" d="M289 848l198 -320l-198 -319h-191l135 319l-135 320h191zM662 848l198 -320l-198 -319h-191l135 319l-135 320h191z" />
<glyph unicode="&#xc1;" horiz-adv-x="1449" d="M1018 1724l-199 -258h-188l61 322zM1038 0l-67 217h-492l-67 -217h-400l449 1337h528l449 -1337h-400zM578 532h294l-147 476z" />
<glyph unicode="&#xc4;" horiz-adv-x="1449" d="M1038 0l-67 217h-492l-67 -217h-400l449 1337h528l449 -1337h-400zM578 532h294l-147 476zM621 1520q-44 -38 -117 -38t-117 38q-45 39 -45 106q0 66 45 105q44 41 117 41t117 -41q45 -39 45 -105q0 -67 -45 -106zM1061 1520q-42 -39 -115 -39q-72 0 -117 39 q-43 40 -43 106q0 65 43 105q47 41 117 41q71 0 115 -41q45 -39 45 -105q0 -67 -45 -106z" />
<glyph unicode="&#xc9;" horiz-adv-x="1337" d="M973 1724l-199 -258h-188l61 322zM1247 1022h-702v-174h590v-316h-590v-217h702v-315h-1091v1337h1091v-315z" />
<glyph unicode="&#xcd;" horiz-adv-x="700" d="M545 1337v-1337h-389v1337h389zM444 1466h-188l61 322l326 -64z" />
<glyph unicode="&#xd3;" horiz-adv-x="1429" d="M727 1364q153 0 269.5 -38.5t185.5 -104.5q64 -63 104 -158q39 -88 52.5 -176t13.5 -211q0 -703 -645 -703q-152 0 -270 40t-189 106q-70 70 -107 157q-36 89 -49.5 177.5t-13.5 208.5q0 702 649 702zM479 657q0 -194 54 -275t182 -81q127 0 181 90.5t54 294.5 q0 192 -53 271t-182 79q-124 0 -180 -90.5t-56 -288.5zM813 1466h-188l61 322l326 -64z" />
<glyph unicode="&#xd4;" horiz-adv-x="1429" d="M719 1554l-57 -88h-238l139 275h309l140 -275h-238zM727 1364q153 0 269.5 -38.5t185.5 -104.5q64 -63 104 -158q39 -88 52.5 -176t13.5 -211q0 -703 -645 -703q-152 0 -270 40t-189 106q-70 70 -107 157q-36 89 -49.5 177.5t-13.5 208.5q0 702 649 702zM950 686 q0 192 -53 271t-182 79q-124 0 -180 -90.5t-56 -288.5q0 -194 54 -275t182 -81q127 0 181 90.5t54 294.5z" />
<glyph unicode="&#xda;" horiz-adv-x="1472" d="M133 1337h389v-845q0 -191 213 -191q215 0 215 191v845h389v-882q0 -235 -154.5 -358.5t-449.5 -123.5q-294 0 -448 123.5t-154 358.5v882zM829 1466h-188l61 322l326 -64z" />
<glyph unicode="&#xdd;" horiz-adv-x="1419" d="M1004 1724l-199 -258h-189l62 322zM1413 1337l-508 -827v-510h-389v510l-510 827h434l271 -489l268 489h434z" />
<glyph unicode="&#xe1;" horiz-adv-x="1224" d="M874 1362l-198 -258h-189l62 321zM1169 299l54 -264q-95 -62 -236 -62q-209 0 -280 142q-100 -142 -312 -142q-155 0 -241 72.5t-86 200.5q0 328 600 346v14q0 99 -144 99q-149 0 -356 -74l-51 248q216 122 465 122q458 0 458 -426v-180q0 -114 76 -114q32 0 53 18z M670 281l-2 47v121q-98 -7 -157.5 -42t-59.5 -83q0 -82 110 -82q58 0 109 39z" />
<glyph unicode="&#xe4;" horiz-adv-x="1224" d="M1169 299l54 -264q-95 -62 -236 -62q-209 0 -280 142q-100 -142 -312 -142q-155 0 -241 72.5t-86 200.5q0 328 600 346v14q0 99 -144 99q-149 0 -356 -74l-51 248q216 122 465 122q458 0 458 -426v-180q0 -114 76 -114q32 0 53 18zM670 281l-2 47v121q-98 -7 -157.5 -42 t-59.5 -83q0 -82 110 -82q58 0 109 39zM477 1157q-44 -38 -116.5 -38t-116.5 38q-45 39 -45 107q0 65 45 104q44 41 116.5 41t116.5 -41q45 -39 45 -104q0 -68 -45 -107zM918 1157q-42 -39 -115 -39q-72 0 -117 39q-43 40 -43 107q0 64 43 104q47 41 117 41q71 0 115 -41 q45 -39 45 -104q0 -68 -45 -107z" />
<glyph unicode="&#xe9;" horiz-adv-x="1116" d="M870 1362l-198 -258h-189l62 321zM954 352l52 -248q-92 -61 -222.5 -96t-253.5 -35q-226 0 -350.5 126.5t-124.5 344.5q0 262 138.5 409.5t384.5 147.5q218 0 339 -120.5t121 -366.5q0 -28 -4 -90h-590q11 -75 56.5 -109t146.5 -34q142 0 307 71zM457 612h245 q-3 117 -110 117q-108 0 -135 -117z" />
<glyph unicode="&#xed;" horiz-adv-x="667" d="M520 0h-373v975h373v-975zM428 1104h-188l61 321l326 -63z" />
<glyph unicode="&#xf3;" horiz-adv-x="1161" d="M602 1001q248 0 376 -130.5t128 -383.5q0 -514 -547 -514q-248 0 -376 130.5t-128 383.5q0 514 547 514zM580 274q75 0 107 49t32 164t-31.5 164t-105.5 49q-75 0 -107.5 -49t-32.5 -164t32 -164t106 -49zM676 1104h-189l62 321l325 -63z" />
<glyph unicode="&#xf4;" horiz-adv-x="1161" d="M582 1192l-58 -88h-237l139 274h309l139 -274h-237zM602 1001q248 0 376 -130.5t128 -383.5q0 -514 -547 -514q-248 0 -376 130.5t-128 383.5q0 514 547 514zM580 274q75 0 107 49t32 164t-31.5 164t-105.5 49q-75 0 -107.5 -49t-32.5 -164t32 -164t106 -49z" />
<glyph unicode="&#xfa;" horiz-adv-x="1230" d="M903 1362l-198 -258h-189l62 321zM725 975h373v-975h-326l-37 137q-120 -164 -307 -164q-141 0 -223 97.5t-82 267.5v637h373v-574q0 -141 116 -141q61 0 113 43v672z" />
<glyph unicode="&#xfd;" horiz-adv-x="1245" d="M915 1362l-198 -258h-189l62 321zM821 975h418l-395 -1108q-66 -184 -171 -268t-270 -84q-138 0 -253 65l51 262q59 -24 127 -24q132 0 166 102l26 86l-162 -33l-352 1002h418l190 -705z" />
<glyph unicode="&#x10c;" horiz-adv-x="1267" d="M885 1466h-310l-139 258l215 41l80 -88l78 88l215 -41zM1186 1276l-58 -293q-168 53 -303 53q-346 0 -346 -377q0 -358 334 -358q132 0 315 53l58 -293q-204 -88 -457 -88q-323 0 -487 174t-164 515q0 346 165 524t488 178q251 0 455 -88z" />
<glyph unicode="&#x10d;" horiz-adv-x="972" d="M725 1104h-309l-140 258l216 41l79 -88l78 88l215 -41zM866 317l56 -266q-162 -78 -365 -78q-247 0 -374.5 128.5t-127.5 363.5q0 241 131 387q131 149 385 149q192 0 344 -73l-55 -266q-100 32 -188 32q-123 0 -176.5 -50t-53.5 -163q0 -108 49 -154t160 -46 q106 0 215 36z" />
<glyph unicode="&#x10e;" horiz-adv-x="1435" d="M813 1466h-309l-139 258l215 41l79 -88l78 88l215 -41zM156 0v1337h549q153 0 272.5 -38.5t191.5 -104.5q71 -64 111 -156q40 -87 55 -174t15 -202q0 -112 -15.5 -198t-54.5 -173q-134 -291 -575 -291h-549zM545 1022v-721h96q164 0 235.5 86t71.5 283q0 189 -71.5 270.5 t-235.5 81.5h-96z" />
<glyph unicode="&#x10f;" d="M690 967v467h373v-1434h-326l-24 121q-115 -148 -293 -148q-166 0 -260 136.5t-94 377.5q0 244 109.5 379t307.5 135q106 0 207 -34zM1145 1434h219l-70 -363h-149v363zM690 283v422q-47 12 -82 12q-155 0 -155 -230q0 -110 37 -173.5t102 -63.5q54 0 98 33z" />
<glyph unicode="&#x11a;" horiz-adv-x="1337" d="M834 1466h-310l-139 258l215 41l80 -88l78 88l215 -41zM1247 1022h-702v-174h590v-316h-590v-217h702v-315h-1091v1337h1091v-315z" />
<glyph unicode="&#x11b;" horiz-adv-x="1116" d="M731 1104h-309l-139 258l215 41l80 -88l77 88l215 -41zM954 352l52 -248q-92 -61 -222.5 -96t-253.5 -35q-226 0 -350.5 126.5t-124.5 344.5q0 262 138.5 409.5t384.5 147.5q218 0 339 -120.5t121 -366.5q0 -28 -4 -90h-590q11 -75 56.5 -109t146.5 -34q142 0 307 71z M457 612h245q-3 117 -110 117q-108 0 -135 -117z" />
<glyph unicode="&#x139;" horiz-adv-x="1216" d="M643 1724l-199 -258h-188l61 322zM545 315h641v-315h-1030v1337h389v-1022z" />
<glyph unicode="&#x13a;" horiz-adv-x="638" d="M506 0h-373v1434h373v-1434zM414 1536h-189l62 322l325 -64z" />
<glyph unicode="&#x13d;" horiz-adv-x="1216" d="M545 315h641v-315h-1030v1337h389v-1022zM846 1337l-70 -362h-149v362h219z" />
<glyph unicode="&#x13e;" horiz-adv-x="638" d="M506 0h-373v1434h373v-1434zM809 1434l-70 -363h-149v363h219z" />
<glyph unicode="&#x147;" horiz-adv-x="1550" d="M930 1466h-309l-140 258l215 41l80 -88l78 88l215 -41zM1006 1337h389v-1337h-459l-391 784v-784h-389v1337h458l392 -784v784z" />
<glyph unicode="&#x148;" horiz-adv-x="1230" d="M774 1104h-309l-139 258l215 41l80 -88l77 88l215 -41zM133 975h326l30 -148q119 174 314 174q141 0 223 -97t82 -267v-637h-373v573q0 142 -119 142q-58 0 -110 -43v-672h-373v975z" />
<glyph unicode="&#x154;" horiz-adv-x="1454" d="M999 1724l-198 -258h-189l62 322zM926 0l-213 383h-168v-383h-389v1337h628q277 0 418 -121.5t141 -359.5q0 -299 -227 -410l266 -446h-456zM545 1022v-324h176q117 0 169 38t52 126q0 85 -52 122.5t-169 37.5h-176z" />
<glyph unicode="&#x155;" horiz-adv-x="903" d="M758 1362l-199 -258h-188l61 321zM852 1012v-344q-251 0 -346 -68v-600h-373v975h326l33 -162q102 199 360 199z" />
<glyph unicode="&#x158;" horiz-adv-x="1454" d="M860 1466h-309l-139 258l215 41l80 -88l77 88l215 -41zM926 0l-213 383h-168v-383h-389v1337h628q277 0 418 -121.5t141 -359.5q0 -299 -227 -410l266 -446h-456zM545 1022v-324h176q117 0 169 38t52 126q0 85 -52 122.5t-169 37.5h-176z" />
<glyph unicode="&#x159;" horiz-adv-x="903" d="M618 1104h-309l-139 258l215 41l80 -88l78 88l215 -41zM852 1012v-344q-251 0 -346 -68v-600h-373v975h326l33 -162q102 199 360 199z" />
<glyph unicode="&#x160;" horiz-adv-x="1282" d="M823 1432h-309l-139 258l215 41l80 -89l78 89l215 -41zM1182 1276l-58 -293q-201 59 -379 59q-256 0 -256 -96q0 -30 19 -51t59 -34t79 -20.5t102.5 -18.5t105.5 -21q61 -12 109.5 -28.5t98.5 -45.5t83.5 -67.5t54.5 -97t21 -130.5q0 -219 -177 -339t-497 -120 q-256 0 -469 88l57 293q201 -59 393 -59q287 0 287 108q0 30 -18.5 51t-59 34t-78.5 21t-103 19t-107 21q-97 22 -177 55q-83 34 -135.5 115.5t-52.5 195.5q0 215 167 332t470 117q248 0 461 -88z" />
<glyph unicode="&#x161;" horiz-adv-x="995" d="M700 1104h-309l-139 258l215 41l80 -88l78 88l215 -41zM889 958l-45 -247q-105 24 -236 24q-149 0 -149 -51q0 -36 150 -73q4 -1 6 -2t5.5 -1.5t6.5 -1.5q45 -8 84 -19.5t82 -34.5t73 -53.5t49.5 -78t18.5 -105.5q0 -160 -128 -251t-355 -91q-216 0 -373 74l53 248 q139 -53 275 -53q141 0 141 57q0 52 -162 84q-45 8 -81.5 18.5t-79 33t-71 52.5t-47.5 78t-18 109q0 159 124.5 243t358.5 84q193 0 318 -43z" />
<glyph unicode="&#x164;" horiz-adv-x="1155" d="M731 1466h-309l-139 258l215 41l80 -88l77 88l215 -41zM1135 1337v-315h-363v-1022h-389v1022h-363v315h1115z" />
<glyph unicode="&#x165;" horiz-adv-x="872" d="M836 1434l-70 -363h-150v363h220zM737 688h-202v-297q0 -115 122 -115q53 0 101 23l53 -260q-117 -66 -276 -66q-194 0 -283.5 90t-89.5 281v344h-117v252l137 27l56 280h297v-272h202v-287z" />
<glyph unicode="&#x16e;" horiz-adv-x="1472" d="M514 1667q0 97 60.5 156t158.5 59q100 0 161.5 -59t61.5 -156q0 -94 -61.5 -152.5t-161.5 -58.5q-98 0 -158.5 58.5t-60.5 152.5zM641 1665q0 -41 25.5 -66.5t66.5 -25.5q43 0 69.5 25.5t26.5 66.5q0 43 -26.5 69.5t-69.5 26.5q-41 0 -66.5 -26.5t-25.5 -69.5zM133 1337 h389v-845q0 -191 213 -191q215 0 215 191v845h389v-882q0 -235 -154.5 -358.5t-449.5 -123.5q-294 0 -448 123.5t-154 358.5v882z" />
<glyph unicode="&#x16f;" horiz-adv-x="1230" d="M608 1094q-98 0 -158.5 58.5t-60.5 152.5q0 97 60.5 156t158.5 59q100 0 161.5 -59t61.5 -156q0 -94 -61.5 -152.5t-161.5 -58.5zM608 1399q-41 0 -66.5 -26.5t-25.5 -69.5q0 -41 25.5 -67t66.5 -26q43 0 70 26t27 67q0 43 -27 69.5t-70 26.5zM725 975h373v-975h-326 l-37 137q-120 -164 -307 -164q-141 0 -223 97.5t-82 267.5v637h373v-574q0 -141 116 -141q61 0 113 43v672z" />
<glyph unicode="&#x17d;" horiz-adv-x="1284" d="M797 1466h-310l-139 258l215 41l80 -88l78 88l215 -41zM1204 1337v-290l-651 -732h651v-315h-1124v291l655 731h-635v315h1104z" />
<glyph unicode="&#x17e;" horiz-adv-x="1071" d="M698 1104h-309l-139 258l215 41l80 -88l78 88l215 -41zM989 975v-246l-414 -442h414v-287h-874l-47 227l442 461h-412v287h891z" />
<glyph unicode="&#x2c6;" horiz-adv-x="587" d="M588 1077h-238l-55 88l-57 -88h-238l139 275h310z" />
<glyph unicode="&#x2da;" horiz-adv-x="442" d="M0 1278q0 97 60.5 156t158.5 59q100 0 161.5 -59t61.5 -156q0 -94 -61.5 -152.5t-161.5 -58.5q-98 0 -158.5 58.5t-60.5 152.5zM127 1276q0 -41 25.5 -66.5t66.5 -25.5q43 0 69.5 25.5t26.5 66.5q0 43 -26.5 69.5t-69.5 26.5q-41 0 -66.5 -26.5t-25.5 -69.5z" />
<glyph unicode="&#x2dc;" horiz-adv-x="643" d="M551 1380l92 -18q0 -140 -49.5 -217.5t-140.5 -77.5q-52 0 -140 33q-85 33 -127 33q-69 0 -94 -66l-92 18q0 140 49.5 217.5t140.5 77.5q54 0 136 -32q85 -33 129 -33q72 0 96 65z" />
<glyph unicode="&#x2000;" horiz-adv-x="941" />
<glyph unicode="&#x2001;" horiz-adv-x="1882" />
<glyph unicode="&#x2002;" horiz-adv-x="941" />
<glyph unicode="&#x2003;" horiz-adv-x="1882" />
<glyph unicode="&#x2004;" horiz-adv-x="627" />
<glyph unicode="&#x2005;" horiz-adv-x="470" />
<glyph unicode="&#x2006;" horiz-adv-x="313" />
<glyph unicode="&#x2007;" horiz-adv-x="313" />
<glyph unicode="&#x2008;" horiz-adv-x="235" />
<glyph unicode="&#x2009;" horiz-adv-x="376" />
<glyph unicode="&#x200a;" horiz-adv-x="104" />
<glyph unicode="&#x2010;" horiz-adv-x="806" d="M76 645h655v-270h-655v270z" />
<glyph unicode="&#x2011;" horiz-adv-x="806" d="M76 645h655v-270h-655v270z" />
<glyph unicode="&#x2012;" horiz-adv-x="806" d="M76 645h655v-270h-655v270z" />
<glyph unicode="&#x2013;" horiz-adv-x="1073" d="M66 645h942v-205h-942v205z" />
<glyph unicode="&#x2014;" horiz-adv-x="1945" d="M31 645h1884v-205h-1884v205z" />
<glyph unicode="&#x2018;" horiz-adv-x="524" d="M319 1452l175 -35l-107 -555h-326z" />
<glyph unicode="&#x2019;" horiz-adv-x="479" d="M205 844l-174 35l106 555h326z" />
<glyph unicode="&#x201a;" horiz-adv-x="479" d="M205 -297l-174 35l106 555h326z" />
<glyph unicode="&#x201c;" horiz-adv-x="899" d="M319 1454l175 -35l-107 -555h-326zM702 1425l166 -34l-102 -527h-309z" />
<glyph unicode="&#x201d;" horiz-adv-x="854" d="M197 872l-166 35l102 527h309zM580 844l-174 35l106 555h326z" />
<glyph unicode="&#x201e;" horiz-adv-x="854" d="M197 -268l-166 35l102 526h309zM580 -297l-174 35l106 555h326z" />
<glyph unicode="&#x2026;" horiz-adv-x="1761" d="M481 31q-53 -47 -143 -47t-143 47q-52 49 -52 133q0 85 52 131q52 49 143 49t143 -49q51 -45 51 -131q0 -85 -51 -133zM1024 31q-53 -47 -143 -47q-91 0 -144 47q-51 48 -51 133q0 86 51 131q52 49 144 49q91 0 143 -49q51 -45 51 -131q0 -85 -51 -133zM1567 31 q-53 -47 -144 -47q-90 0 -143 47q-51 48 -51 133q0 86 51 131q52 49 143 49q92 0 144 -49q51 -45 51 -131q0 -85 -51 -133z" />
<glyph unicode="&#x202f;" horiz-adv-x="376" />
<glyph unicode="&#x2039;" horiz-adv-x="552" d="M455 848l-136 -320l136 -319h-191l-198 319l198 320h191z" />
<glyph unicode="&#x203a;" horiz-adv-x="552" d="M289 848l198 -320l-198 -319h-191l135 319l-135 320h191z" />
<glyph unicode="&#x205f;" horiz-adv-x="470" />
<glyph unicode="&#x20ac;" horiz-adv-x="1366" d="M944 913l-39 -194h-874v194h172q108 451 612 451q265 0 469 -88l-57 -293q-168 53 -303 53q-196 0 -281 -123h301zM885 606l-37 -194h-205q83 -111 258 -111q136 0 352 64v-316q-198 -76 -438 -76q-504 0 -612 439h-172v194h854z" />
<glyph unicode="&#x2122;" horiz-adv-x="1536" d="M45 1153v184h522v-184h-159v-457h-203v457h-160zM1475 696h-207l-25 332l-106 -332h-191l-106 332l-23 -332h-209l54 641h270l108 -358l111 358h270z" />
<glyph unicode="&#x25fc;" horiz-adv-x="972" d="M0 973h973v-973h-973v973z" />
</font>
</defs>
</svg>
