<?xml version="1.0" standalone="no"?>
<!DOCTYPE svg PUBLIC "-//W3C//DTD SVG 1.1//EN" "http://www.w3.org/Graphics/SVG/1.1/DTD/svg11.dtd" >
<svg xmlns="http://www.w3.org/2000/svg">
<metadata></metadata>
<defs>
<font id="adria_groteskthin" horiz-adv-x="972" >
<font-face units-per-em="2048" ascent="1538" descent="-510" />
<missing-glyph horiz-adv-x="491" />
<glyph horiz-adv-x="0" />
<glyph horiz-adv-x="682" />
<glyph unicode=" "  horiz-adv-x="491" />
<glyph unicode="&#x09;" horiz-adv-x="491" />
<glyph unicode="&#xa0;" horiz-adv-x="491" />
<glyph unicode="!" horiz-adv-x="335" d="M203 1337l-17 -1163h-41l-12 1163h70zM113 35q0 53 55 53t55 -53q0 -51 -55 -51t-55 51z" />
<glyph unicode="&#x22;" horiz-adv-x="460" d="M156 1337l-13 -411l-49 -11l-12 422h74zM379 1337l-12 -366l-50 -10l-12 376h74z" />
<glyph unicode="#" horiz-adv-x="1380" d="M1268 793h-254l-84 -435h338v-51h-348l-60 -307h-55l59 307h-452l-60 -307h-55l59 307h-243v51h254l84 435h-338v49h348l59 309h55l-59 -309h453l59 309h55l-59 -309h244v-49zM874 358l84 435h-452l-84 -435h452z" />
<glyph unicode="$" horiz-adv-x="1173" d="M999 1276l-12 -62q-176 89 -403 89q-192 0 -297 -71t-105 -200q0 -67 30.5 -118.5t81.5 -83.5t117.5 -57t140.5 -44.5t147.5 -40t140 -50t117.5 -68t81.5 -100t30.5 -140.5q0 -165 -128.5 -258t-367.5 -99v-209h-61v209q-223 6 -397 88l12 62q175 -88 403 -88t351 76.5 t123 216.5q0 68 -30.5 120t-81.5 84.5t-117.5 57.5t-140.5 45t-147.5 41t-140 50.5t-117.5 68t-81.5 99.5t-30.5 140q0 151 109 234t315 94v219h61v-217q211 -3 397 -88z" />
<glyph unicode="%" horiz-adv-x="1323" d="M352 1364q266 0 266 -301q0 -309 -272 -309q-268 0 -268 301q0 309 274 309zM1094 1364l45 -31l-910 -1360l-45 31zM190 868q54 -63 158 -63t158 63q55 64 55 191q0 124 -55 188q-57 66 -158 66t-158 -66q-55 -64 -55 -188q0 -127 55 -191zM979 584q266 0 266 -301 q0 -310 -272 -310q-268 0 -268 301q0 310 274 310zM817 88q54 -63 158 -63t158 63q55 64 55 191q0 124 -55 188q-56 65 -158 65t-158 -65q-55 -64 -55 -188q0 -127 55 -191z" />
<glyph unicode="&#x26;" horiz-adv-x="1296" d="M1276 33l-12 -60l-201 140q-146 -140 -408 -140q-233 0 -383 105q-149 107 -149 297q0 225 192 350q-106 138 -106 283q0 162 125.5 259t349.5 97q114 0 240 -27l-13 -57q-103 33 -229 33q-197 0 -304.5 -84.5t-107.5 -222.5q0 -149 146 -320q77 -84 174 -164 q152 -122 211 -164q41 -29 252 -174q90 116 90 283h57q0 -189 -100 -315zM659 25q227 0 359 120q-293 204 -422 306q-163 129 -254 239q-158 -128 -158 -315q0 -171 135 -260q140 -90 340 -90z" />
<glyph unicode="'" horiz-adv-x="237" d="M156 1337l-13 -411l-49 -11l-12 422h74z" />
<glyph unicode="(" horiz-adv-x="522" d="M434 1536l58 -12q-271 -459 -271 -996q0 -527 266 -1001l-57 -12q-270 448 -270 1001q0 555 274 1020z" />
<glyph unicode=")" horiz-adv-x="522" d="M88 -485l-57 12q270 457 270 995q0 528 -266 1002l57 12q270 -448 270 -1001q0 -555 -274 -1020z" />
<glyph unicode="*" horiz-adv-x="548" d="M487 1159l-198 -41l137 -147l-53 -39l-99 178l-98 -178l-53 39l137 147l-199 41l21 62l182 -82l-22 198h65l-22 -198l182 82z" />
<glyph unicode="+" horiz-adv-x="970" d="M874 662v-50h-360v-358h-57v358h-361v50h361v362h57v-362h360z" />
<glyph unicode="," horiz-adv-x="208" d="M84 -270l-43 8l63 328h84z" />
<glyph unicode="-" horiz-adv-x="700" d="M96 567h508v-49h-508v49z" />
<glyph unicode="." horiz-adv-x="335" d="M113 35q0 53 55 53t55 -53q0 -51 -55 -51t-55 51z" />
<glyph unicode="/" horiz-adv-x="604" d="M539 1337h65l-536 -1337h-68z" />
<glyph unicode="0" horiz-adv-x="1292" d="M649 1364q129 0 228 -38.5t159 -104.5q57 -63 92 -158q33 -89 45.5 -177.5t12.5 -209.5q0 -119 -12.5 -208t-47.5 -181q-114 -314 -487 -314q-125 0 -225 40t-160 106q-57 66 -90 157q-33 89 -45.5 178t-12.5 208q0 120 12 209.5t46 181.5q114 311 485 311zM172 659 q0 -323 112.5 -473.5t352.5 -150.5q247 0 365 158.5t118 488.5q0 320 -113.5 470.5t-353.5 150.5q-247 0 -364 -157t-117 -487z" />
<glyph unicode="1" horiz-adv-x="724" d="M479 1337h51v-1337h-61v1272l-369 -72l-10 47z" />
<glyph unicode="2" horiz-adv-x="1099" d="M182 57h832v-57h-932v51q444 293 654 523.5t210 437.5q0 291 -385 291q-245 0 -465 -111l-12 61q231 111 475 111q219 0 336 -90t117 -256q0 -430 -830 -961z" />
<glyph unicode="3" horiz-adv-x="1163" d="M119 1204l-13 62q223 98 478 98q442 0 442 -320q0 -240 -256 -335q301 -105 301 -365q0 -176 -134.5 -273.5t-389.5 -97.5q-275 0 -465 99l12 61q192 -98 455 -98q224 0 340.5 81t116.5 230q0 152 -138 246q-135 94 -467 129l13 59q143 -14 264 -43q139 37 211 115.5 t72 191.5q0 259 -377 259q-240 0 -465 -99z" />
<glyph unicode="4" horiz-adv-x="1220" d="M1180 502v-58h-295v-444h-62v444h-737l-14 50l442 843h72l-449 -835h686v383l62 12v-395h295z" />
<glyph unicode="5" horiz-adv-x="1173" d="M1004 1280h-691l-100 -487q158 79 381 79q477 0 477 -428q0 -232 -140.5 -351.5t-410.5 -119.5q-222 0 -428 99l12 61q215 -98 426 -98q228 0 352 107.5t124 310.5q0 358 -410 358q-241 0 -403 -98l-60 12l129 612h742v-57z" />
<glyph unicode="6" horiz-adv-x="1204" d="M1030 1276l-12 -62q-145 89 -342 89q-245 0 -372 -163t-132 -476q201 198 475 198q209 0 332 -116.5t123 -333.5q0 -210 -120 -324.5t-345 -114.5q-531 0 -531 668q0 355 144.5 539t425.5 184q205 0 354 -88zM635 35q194 0 297.5 101t103.5 286q0 186 -102.5 282.5 t-280.5 96.5q-271 0 -479 -217q21 -549 461 -549z" />
<glyph unicode="7" horiz-adv-x="1114" d="M90 1337h924l10 -51q-498 -550 -498 -1286h-65q21 743 493 1280h-864v57z" />
<glyph unicode="8" horiz-adv-x="1253" d="M739 694q102 -30 166.5 -58t128.5 -71q135 -85 135 -243q0 -119 -82 -201q-148 -148 -466 -148q-107 -2 -201.5 18t-170 61t-120 110.5t-45.5 159.5q0 269 408 383q-181 61 -268 137.5t-87 199.5q0 82 41.5 145.5t112 101t157.5 56.5t185 19q203 0 344 -78 q139 -77 139 -235q0 -126 -96 -220.5t-281 -136.5zM203 1042q0 -99 86 -174q44 -34 98 -57q86 -38 250 -86q414 80 414 319q0 131 -119 195t-299 64q-176 0 -305 -66q-125 -64 -125 -195zM623 35q130 0 235 27.5t175.5 93.5t70.5 163q7 67 -36 123.5t-110 96.5 q-37 26 -102 49q-74 27 -106 37q-52 19 -119 37l-35 10q-446 -102 -446 -350q0 -148 135 -218q132 -69 338 -69z" />
<glyph unicode="9" horiz-adv-x="1204" d="M174 61l12 62q143 -88 342 -88q245 0 372 163t132 476q-202 -199 -475 -199q-209 0 -332 117t-123 334q0 210 120 324t345 114q531 0 531 -668q0 -355 -144.5 -539t-425.5 -184q-205 0 -354 88zM551 537q271 0 479 217q-21 549 -461 549q-194 0 -297.5 -101t-103.5 -287 t102.5 -282t280.5 -96z" />
<glyph unicode=":" horiz-adv-x="335" d="M113 528q0 54 55 54t55 -54q0 -51 -55 -51t-55 51zM113 35q0 53 55 53t55 -53q0 -51 -55 -51t-55 51z" />
<glyph unicode=";" horiz-adv-x="301" d="M78 528q0 54 55 54t55 -54q0 -51 -55 -51t-55 51zM84 -270l-43 8l63 328h84z" />
<glyph unicode="&#x3c;" horiz-adv-x="944" d="M848 981v-57l-694 -285l694 -285v-57l-752 313v60z" />
<glyph unicode="=" horiz-adv-x="909" d="M96 803h717v-49h-717v49zM96 524h717v-49h-717v49z" />
<glyph unicode="&#x3e;" horiz-adv-x="944" d="M96 981l752 -311v-60l-752 -313v57l695 285l-695 285v57z" />
<glyph unicode="?" horiz-adv-x="1077" d="M115 1217l-13 57q224 90 390 90q222 0 352.5 -116t130.5 -318q0 -194 -121.5 -316.5t-343.5 -154.5v-273h-41l-20 316q234 30 347 141t113 283q0 178 -113.5 277.5t-310.5 99.5q-163 0 -370 -86zM543 35q0 -51 -56 -51q-55 0 -55 51q0 53 55 53q56 0 56 -53z" />
<glyph unicode="@" horiz-adv-x="2082" d="M1438 -348l12 -55q-186 -82 -453 -82q-438 0 -669.5 247.5t-231.5 720.5q0 481 239.5 729t704.5 248t706 -244.5t241 -713.5q0 -527 -326 -527q-187 0 -266 156q-169 -158 -373 -158q-202 0 -320 137t-118 377q0 244 129.5 379t361.5 135q161 0 332 -77v-584 q0 -148 68 -230.5t186 -82.5q135 0 199.5 118t64.5 365q0 439 -225.5 669t-659.5 230q-435 0 -658.5 -235t-223.5 -691q0 -449 218.5 -683t635.5 -234q243 0 426 86zM1352 334v553q-123 63 -283 63q-202 0 -313 -122t-111 -347q0 -215 99.5 -335.5t281.5 -120.5 q199 0 348 149q-25 66 -22 160z" />
<glyph unicode="A" horiz-adv-x="1257" d="M1147 0l-152 379h-733l-151 -379h-66l541 1337h86l540 -1337h-65zM285 436h688l-344 856z" />
<glyph unicode="B" horiz-adv-x="1312" d="M195 0v1337h528q207 0 314.5 -87t107.5 -257q0 -248 -232 -319q273 -58 273 -330q0 -170 -107.5 -257t-314.5 -87h-569zM713 1280h-457v-582h457q366 0 366 293q0 289 -366 289zM256 641v-584h498q366 0 366 289q0 295 -366 295h-498z" />
<glyph unicode="C" horiz-adv-x="1189" d="M1106 1272l-12 -62q-200 93 -392 93q-259 0 -393.5 -165t-134.5 -481q0 -307 136 -464.5t397 -157.5q202 0 389 94l12 -61q-207 -95 -418 -95q-287 0 -434 174.5t-147 514.5q0 346 149 524t442 178q217 0 406 -92z" />
<glyph unicode="D" horiz-adv-x="1292" d="M195 0v1337h374q321 0 473 -163t152 -506q0 -344 -152 -506t-473 -162h-374zM256 1280v-1223h309q290 0 426.5 149.5t136.5 467.5q0 312 -136.5 459t-426.5 147h-309z" />
<glyph unicode="E" horiz-adv-x="1187" d="M1085 1280h-829v-559h717v-57h-717v-607h829v-57h-890v1337h890v-57z" />
<glyph unicode="F" horiz-adv-x="1081" d="M1053 1280h-797v-592h684v-57h-684v-631h-61v1337h858v-57z" />
<glyph unicode="G" horiz-adv-x="1306" d="M1081 614h62v-540q-203 -101 -443 -101q-293 0 -442 174.5t-149 514.5q0 346 149 524t442 178q217 0 406 -92l-12 -60q-199 91 -389 91q-259 0 -395 -165t-136 -479q0 -624 547 -624q193 0 360 78v501z" />
<glyph unicode="H" horiz-adv-x="1341" d="M1085 1337h62v-1337h-62v659h-829v-659h-61v1337h61v-620h829v620z" />
<glyph unicode="I" horiz-adv-x="450" d="M256 1337v-1337h-61v1337h61z" />
<glyph unicode="J" horiz-adv-x="698" d="M471 1337h61v-1108q0 -122 -68 -185.5t-188 -63.5q-110 0 -202 47l12 53q85 -43 188 -43q197 0 197 194v1106z" />
<glyph unicode="K" horiz-adv-x="1165" d="M195 0v1337h61v-1337h-61zM406 668l747 -668h-82l-749 662l749 675h80z" />
<glyph unicode="L" horiz-adv-x="1110" d="M256 57h793v-57h-854v1337h61v-1280z" />
<glyph unicode="M" horiz-adv-x="1730" d="M1606 0h-62l-211 1280l-422 -1280h-92l-422 1280l-211 -1280h-61l221 1337h92l428 -1284l426 1284h92z" />
<glyph unicode="N" horiz-adv-x="1390" d="M1135 1337h61v-1337h-78l-862 1264v-1264h-61v1337h81l859 -1261v1261z" />
<glyph unicode="O" horiz-adv-x="1323" d="M672 1364q131 0 233 -39.5t162 -105.5q57 -60 92 -156q33 -88 44 -175t11 -212q0 -703 -559 -703q-131 0 -233.5 39.5t-165.5 106.5q-58 64 -92 157q-55 160 -55 386q0 702 563 702zM174 649q0 -320 115.5 -467t376.5 -147q252 0 367.5 156.5t115.5 506.5 q0 316 -113.5 460.5t-369.5 144.5t-374 -154t-118 -500z" />
<glyph unicode="P" horiz-adv-x="1128" d="M195 0v1337h448q438 0 438 -385q0 -383 -438 -383h-387v-569h-61zM256 1280v-653h389q371 0 371 327q0 160 -94 243t-277 83h-389z" />
<glyph unicode="Q" horiz-adv-x="1323" d="M608 -61l8 34q-122 6 -216.5 48t-153.5 108q-51 62 -86 156q-51 155 -51 377q0 702 563 702q131 0 233 -39.5t162 -105.5q57 -60 92 -156q33 -88 44 -175t11 -212q0 -703 -559 -703h-18q177 -131 391 -131v-71q-237 0 -420 168zM174 649q0 -320 115.5 -467t376.5 -147 q252 0 367.5 156.5t115.5 506.5q0 316 -113.5 460.5t-369.5 144.5t-374 -154t-118 -500z" />
<glyph unicode="R" horiz-adv-x="1226" d="M1055 0l-408 569h-391v-569h-61v1337h483q438 0 438 -385q0 -365 -401 -383l411 -569h-71zM256 1280v-653h424q371 0 371 327q0 160 -94 243t-277 83h-424z" />
<glyph unicode="S" horiz-adv-x="1173" d="M999 1276l-12 -62q-176 89 -403 89q-192 0 -297 -71t-105 -200q0 -67 30.5 -118.5t81.5 -83.5t117.5 -57t140.5 -44.5t147.5 -40t140 -50t117.5 -68t81.5 -100t30.5 -140.5q0 -171 -137 -264t-393 -93q-238 0 -424 88l12 62q175 -88 403 -88t351 76.5t123 216.5 q0 68 -30.5 120t-81.5 84.5t-117.5 57.5t-140.5 45t-147.5 41t-140 50.5t-117.5 68t-81.5 99.5t-30.5 140q0 160 123 245t352 85q221 0 407 -88z" />
<glyph unicode="T" horiz-adv-x="1212" d="M1122 1337v-57h-485v-1280h-62v1280h-485v57h1032z" />
<glyph unicode="U" horiz-adv-x="1343" d="M166 1337h61v-878q0 -424 445 -424q444 0 444 424v878h62v-882q0 -235 -129.5 -358.5t-376.5 -123.5q-246 0 -376 123.5t-130 358.5v882z" />
<glyph unicode="V" horiz-adv-x="1247" d="M1141 1337h65l-540 -1337h-84l-541 1337h65l519 -1288z" />
<glyph unicode="W" horiz-adv-x="1705" d="M1542 1337h62l-293 -1337h-92l-365 1276l-367 -1276h-92l-293 1337h62l280 -1280l363 1280h92l363 -1280z" />
<glyph unicode="X" horiz-adv-x="1075" d="M1063 1337l-492 -667l492 -670h-68l-456 625l-459 -625h-68l492 670l-492 667h72l455 -620l452 620h72z" />
<glyph unicode="Y" horiz-adv-x="1099" d="M1098 1337l-516 -796v-541h-62v541l-518 796h68l481 -745l479 745h68z" />
<glyph unicode="Z" horiz-adv-x="1175" d="M1092 1337v-51l-932 -1229h932v-57h-1008v53l932 1227h-916v57h992z" />
<glyph unicode="[" horiz-adv-x="471" d="M440 1460h-223v-1870h223v-49h-280v1968h280v-49z" />
<glyph unicode="\" horiz-adv-x="604" d="M66 1337l538 -1337h-67l-537 1337h66z" />
<glyph unicode="]" horiz-adv-x="471" d="M31 1509h280v-1968h-280v49h223v1870h-223v49z" />
<glyph unicode="^" horiz-adv-x="665" d="M557 1051h-55l-168 243l-170 -243h-55l204 286h39z" />
<glyph unicode="_" horiz-adv-x="778" d="M0 -27h778v-49h-778v49z" />
<glyph unicode="`" horiz-adv-x="245" d="M203 1077l-203 258l70 15l176 -273h-43z" />
<glyph unicode="a" horiz-adv-x="1075" d="M1061 57l10 -51q-47 -33 -119 -33q-73 0 -107 44.5t-34 138.5v14q-85 -93 -196 -145t-218 -52q-128 0 -209.5 70t-81.5 190q0 176 183.5 267.5t521.5 93.5v49q0 161 -67 234t-214 73q-170 0 -356 -119l-10 52q167 118 383 118q166 0 243.5 -91t77.5 -283v-459 q0 -78 19.5 -110.5t66.5 -32.5q61 0 107 32zM811 233v310q-643 -3 -643 -305q0 -97 63.5 -155t167.5 -58q100 0 210.5 55t201.5 153z" />
<glyph unicode="b" horiz-adv-x="1071" d="M160 1434h57v-551q142 118 338 118q198 0 314 -137t116 -375q0 -246 -129 -381t-362 -135q-158 0 -334 78v1383zM217 831v-743q123 -63 283 -63q201 0 312.5 121.5t111.5 342.5q0 215 -99 338q-95 123 -268 123q-172 0 -340 -119z" />
<glyph unicode="c" d="M860 92l10 -51q-145 -68 -317 -68q-234 0 -352.5 130.5t-118.5 373.5q0 248 118.5 386t354.5 138q179 0 309 -65l-10 -51q-127 65 -276 65q-435 0 -435 -458q0 -239 103.5 -353t318.5 -114q146 0 295 67z" />
<glyph unicode="d" horiz-adv-x="1087" d="M870 1434h58v-1434h-45l-11 195q-74 -101 -180.5 -161.5t-222.5 -60.5q-180 0 -283 140q-100 138 -100 366q0 244 117 383t315 139q207 0 352 -118v551zM870 258v573q-168 119 -354 119q-173 0 -271 -125t-98 -346q0 -211 84.5 -332.5t241.5 -121.5q222 0 397 233z" />
<glyph unicode="e" horiz-adv-x="1067" d="M901 119l10 -51q-167 -95 -372 -95q-222 0 -339.5 127t-117.5 365q0 256 133 395q132 141 348 141q199 0 302.5 -119t103.5 -350q0 -33 -4 -69h-822q3 -438 416 -438q199 0 342 94zM143 512h766v4q0 434 -342 434q-58 0 -111.5 -11.5t-109.5 -42.5t-98.5 -78.5t-71 -126 t-33.5 -179.5z" />
<glyph unicode="f" horiz-adv-x="571" d="M518 1427l-10 -51q-65 32 -119 33.5t-86.5 -35t-26.5 -108.5v-291h209v-49h-209v-926h-57v926h-160v49h160v303q0 96 39 139t125 43q85 0 135 -33z" />
<glyph unicode="g" horiz-adv-x="1132" d="M1067 1010l12 -64l-188 -37q104 -88 104 -254t-105.5 -258t-328.5 -92q-194 0 -301 70q-88 -46 -88 -111q0 -61 92 -82q94 -21 228 -24q147 -3 268 -17q136 -15 225 -84q94 -67 94 -198q0 -157 -129 -250.5t-387 -93.5q-266 0 -392 82.5t-126 230.5q0 185 178 305 q-108 35 -108 119q0 92 104 156q-94 85 -94 247q0 346 436 346q200 0 309 -77v30zM186 655q0 -154 91.5 -226.5t283.5 -72.5t283.5 72.5t91.5 226.5q0 152 -91.5 223.5t-283.5 71.5t-283.5 -71.5t-91.5 -223.5zM563 -434q224 0 339.5 78.5t115.5 216.5q0 86 -48.5 140 t-138.5 73q-89 21 -174 24q-62 4 -200 8q-87 2 -174 15q-82 -50 -129.5 -126.5t-47.5 -162.5q0 -126 114.5 -196t342.5 -70z" />
<glyph unicode="h" horiz-adv-x="1116" d="M160 1434h57v-650q75 102 183.5 159.5t226.5 57.5q160 0 250 -94.5t90 -269.5v-637h-58v629q0 158 -75 239.5t-211 81.5q-110 0 -217 -61.5t-189 -171.5v-717h-57v1434z" />
<glyph unicode="i" horiz-adv-x="421" d="M254 1147q0 -39 -43 -39t-43 39t43 39t43 -39zM240 0h-58v975h58v-975z" />
<glyph unicode="j" horiz-adv-x="421" d="M182 975h58v-1278q0 -182 -164 -182q-86 0 -135 32l10 52q65 -32 119 -33.5t86 35t26 108.5v1266zM254 1147q0 -39 -43 -39t-43 39t43 39t43 -39z" />
<glyph unicode="k" horiz-adv-x="929" d="M160 0v1434h57v-1434h-57zM332 518l573 -518h-74l-575 516l545 459h82z" />
<glyph unicode="l" horiz-adv-x="376" d="M217 0h-57v1434h57v-1434z" />
<glyph unicode="m" horiz-adv-x="1488" d="M160 975h45l10 -189q120 215 303 215q100 0 167 -58t87 -165q119 223 307 223q119 0 189.5 -80.5t70.5 -224.5v-696h-57v688q0 122 -57.5 192t-151.5 70q-169 0 -295 -231v-23v-696h-57v688q0 122 -57.5 192t-151.5 70q-170 0 -295 -229v-721h-57v975z" />
<glyph unicode="n" horiz-adv-x="1116" d="M160 975h45l10 -195q75 104 184 162.5t228 58.5q160 0 250 -94.5t90 -269.5v-637h-58v629q0 158 -75 239.5t-211 81.5q-110 0 -217 -61.5t-189 -171.5v-717h-57v975z" />
<glyph unicode="o" horiz-adv-x="1083" d="M557 1001q220 0 332 -130t112 -384q0 -253 -120 -383.5t-353 -130.5q-220 0 -333 130.5t-113 383.5t120.5 383.5t354.5 130.5zM535 25q198 0 301.5 118t103.5 346q0 461 -391 461q-201 0 -303.5 -117t-102.5 -344q0 -464 392 -464z" />
<glyph unicode="p" horiz-adv-x="1087" d="M160 975h45l10 -195q74 101 180.5 161t222.5 60q179 0 281 -141q102 -138 102 -364q0 -244 -117 -383.5t-315 -139.5q-206 0 -352 119v-551h-57v1434zM217 717v-574q167 -118 354 -118q173 0 271 125t98 346q0 211 -84.5 332.5t-241.5 121.5q-222 0 -397 -233z" />
<glyph unicode="q" horiz-adv-x="1071" d="M911 -459h-57v551q-143 -119 -338 -119q-198 0 -314 137t-116 375q0 246 129 381t363 135q159 0 333 -77v-1383zM854 143v744q-123 63 -283 63q-201 0 -312.5 -122t-111.5 -343q0 -212 97 -338q98 -122 270 -122q173 0 340 118z" />
<glyph unicode="r" horiz-adv-x="647" d="M205 975l12 -227v-3q126 256 399 256v-53q-267 0 -399 -286v-662h-57v975h45z" />
<glyph unicode="s" horiz-adv-x="931" d="M88 55l10 51q161 -81 336 -81q159 0 254.5 64.5t95.5 170.5q0 83 -66 133t-177 70q-21 4 -60 11.5t-62.5 12.5t-60 13.5t-59.5 16t-53.5 20t-50 26t-40 32t-32.5 40t-19.5 49t-7.5 59.5q0 126 105 192t299 66q157 0 282 -43l-10 -51q-113 43 -264 43q-162 0 -257 -49.5 t-95 -150.5q0 -152 241 -201q8 -1 24 -4q43 -7 66 -11t65 -13t66 -16.5t59.5 -20.5t56 -26.5t44.5 -33t37 -42t21.5 -51.5t7.5 -63q0 -135 -110.5 -215t-299.5 -80q-191 0 -346 82z" />
<glyph unicode="t" horiz-adv-x="641" d="M537 57l10 -51q-50 -33 -135 -33q-86 0 -125 43t-39 140v770h-187v43l187 6l12 272h45v-272h203v-49h-203v-758q-6 -73 26.5 -109.5t86.5 -35t119 33.5z" />
<glyph unicode="u" horiz-adv-x="1114" d="M897 975h57v-975h-45l-10 190q-156 -217 -418 -217q-164 0 -249 92.5t-85 272.5v637h58v-629q0 -165 67 -243t207 -78q249 0 418 233v717z" />
<glyph unicode="v" horiz-adv-x="954" d="M877 975h59l-420 -975h-78l-420 975h60l399 -930z" />
<glyph unicode="w" horiz-adv-x="1542" d="M1456 975h57l-335 -975h-78l-328 920l-330 -920h-77l-336 975h57l320 -928l325 928h80l326 -928z" />
<glyph unicode="x" horiz-adv-x="944" d="M920 0h-72l-375 455l-377 -455h-71l411 498l-395 477h72l360 -434l358 434h72l-395 -477z" />
<glyph unicode="y" d="M895 975h59l-559 -1286q-41 -95 -85.5 -134.5t-108.5 -39.5q-67 0 -115 28l10 51q48 -28 111 -28q44 0 74.5 29.5t66.5 105.5l125 291l-29 -6l-426 989h60l407 -950z" />
<glyph unicode="z" d="M889 975v-43l-742 -883h742v-49h-807l-8 39l743 887h-739v49h811z" />
<glyph unicode="{" horiz-adv-x="784" d="M754 1503l-11 -53q-78 35 -178 35q-147 0 -210.5 -69t-63.5 -232q0 -78 14 -166q17 -107 17 -154q0 -168 -99 -239q92 -65 92 -242q0 -54 -12 -180t-12 -203q0 -222 72.5 -328t224.5 -106q85 0 155 33l11 -54q-80 -30 -172 -30q-353 0 -353 497q0 91 15 217 q16 134 16 174q0 93 -26.5 146t-73.5 53v49q46 0 76 59.5t30 145.5q0 43 -18 145q-19 108 -19 181q1 185 83 269.5t253 84.5q116 0 189 -33z" />
<glyph unicode="|" horiz-adv-x="428" d="M246 1434v-1801h-58v1801h58z" />
<glyph unicode="}" horiz-adv-x="784" d="M41 1450l-10 53q73 33 188 33q171 0 253 -84.5t83 -269.5q0 -79 -18 -181q-19 -108 -19 -145q0 -86 30 -145.5t77 -59.5v-49q-47 0 -74 -53.5t-27 -145.5q0 -48 15 -174q16 -134 16 -217q0 -497 -352 -497q-93 0 -172 30l10 54q70 -33 156 -33q152 0 224.5 106t72.5 328 q0 66 -13 203q-12 126 -12 180q0 174 92 242q-98 70 -98 239q0 66 14 154q17 107 17 166q0 163 -64 232t-211 69q-100 0 -178 -35z" />
<glyph unicode="~" horiz-adv-x="888" d="M782 688l11 -51q-74 -51 -181 -51q-64 0 -176 28q-112 31 -160 31q-93 0 -170 -53l-10 51q74 51 180 51q69 0 177 -30q116 -29 159 -29q93 0 170 53z" />
<glyph unicode="&#xa2;" d="M860 92l10 -51q-139 -65 -303 -68v-198h-57v200q-212 12 -320 141.5t-108 360.5q0 236 107 373t321 149v187h57v-185q176 -3 297 -65l-10 -51q-127 65 -276 65q-435 0 -435 -458q0 -239 103.5 -353t318.5 -114q146 0 295 67z" />
<glyph unicode="&#xa3;" horiz-adv-x="1087" d="M260 57h746v-57h-846v45q95 65 147.5 175.5t52.5 225.5q0 54 -12 107h-188v49h176l-80 189q-72 167 -72 260q0 148 103 230.5t293 82.5q221 0 401 -88l-12 -62q-204 89 -375 89q-163 0 -253.5 -69.5t-90.5 -189.5q0 -83 67 -229q68 -147 86 -213h351v-49h-340 q10 -65 10 -111q0 -247 -164 -385z" />
<glyph unicode="&#xa5;" horiz-adv-x="1099" d="M1098 1337l-506 -782h338v-49h-758v49h338l-508 782h68l481 -745l479 745h68zM172 344v49h758v-49h-348v-344h-62v344h-348z" />
<glyph unicode="&#xa8;" horiz-adv-x="290" d="M86 1147q0 -37 -43 -37t-43 37t43 37t43 -37zM291 1147q0 -37 -43 -37t-43 37t43 37t43 -37z" />
<glyph unicode="&#xa9;" horiz-adv-x="1581" d="M287 166q-191 194 -191 504t191 501q193 193 504 193t501 -193q193 -190 193 -501t-193 -504q-191 -191 -501 -191t-504 191zM328 1137q-176 -176 -176 -467t176 -467t463 -176q286 0 462 176q177 177 177 467t-177 467q-176 176 -462 176q-287 0 -463 -176zM1055 1057 l-8 -51q-131 55 -246 55q-161 0 -244.5 -100t-83.5 -295q0 -383 330 -383q121 0 244 57l10 -51q-136 -62 -271 -62q-372 0 -372 441q0 448 381 448q145 0 260 -59z" />
<glyph unicode="&#xab;" horiz-adv-x="632" d="M301 872l-182 -344l182 -344h-49l-201 344l201 344h49zM530 872l-182 -344l182 -344h-49l-200 344l200 344h49z" />
<glyph unicode="&#xad;" horiz-adv-x="700" d="M96 567h508v-49h-508v49z" />
<glyph unicode="&#xae;" horiz-adv-x="1581" d="M287 1171q193 193 504 193t501 -193q193 -190 193 -501t-193 -504q-191 -191 -501 -191t-504 191q-191 194 -191 504t191 501zM328 203q176 -176 463 -176q286 0 462 176q177 177 177 467t-177 467q-176 176 -462 176q-287 0 -463 -176t-176 -467t176 -467zM520 268v809 h301q129 0 202 -63.5t73 -175.5q0 -103 -63 -164.5t-173 -69.5l242 -336h-66l-239 334h-219v-334h-58zM578 1028v-377h241q215 0 215 189q0 188 -215 188h-241z" />
<glyph unicode="&#xb4;" horiz-adv-x="241" d="M43 1077h-43l176 273l70 -15z" />
<glyph unicode="&#xb8;" horiz-adv-x="344" d="M57 -137l9 37q278 0 278 -176q0 -80 -61 -126.5t-170 -46.5q-67 0 -113 15l10 51q43 -14 103 -14q172 0 172 123q0 137 -228 137z" />
<glyph unicode="&#xbb;" horiz-adv-x="632" d="M152 872l200 -344l-200 -344h-50l183 344l-183 344h50zM381 872l201 -344l-201 -344h-49l182 344l-182 344h49z" />
<glyph unicode="&#xc1;" horiz-adv-x="1257" d="M838 1724l-203 -258h-43l176 273zM1147 0l-152 379h-733l-151 -379h-66l541 1337h86l540 -1337h-65zM285 436h688l-344 856z" />
<glyph unicode="&#xc4;" horiz-adv-x="1257" d="M1147 0l-152 379h-733l-151 -379h-66l541 1337h86l540 -1337h-65zM285 436h688l-344 856zM569 1536q0 -37 -43 -37t-43 37t43 37t43 -37zM774 1536q0 -37 -43 -37t-43 37t43 37t43 -37z" />
<glyph unicode="&#xc9;" horiz-adv-x="1187" d="M850 1724l-203 -258h-43l176 273zM1085 1280h-829v-559h717v-57h-717v-607h829v-57h-890v1337h890v-57z" />
<glyph unicode="&#xcd;" horiz-adv-x="450" d="M256 1337v-1337h-61v1337h61zM231 1466h-43l177 273l69 -15z" />
<glyph unicode="&#xd3;" horiz-adv-x="1323" d="M672 1364q131 0 233 -39.5t162 -105.5q57 -60 92 -156q33 -88 44 -175t11 -212q0 -703 -559 -703q-131 0 -233.5 39.5t-165.5 106.5q-58 64 -92 157q-55 160 -55 386q0 702 563 702zM174 649q0 -320 115.5 -467t376.5 -147q252 0 367.5 156.5t115.5 506.5 q0 316 -113.5 460.5t-369.5 144.5t-374 -154t-118 -500zM670 1466h-43l176 273l69 -15z" />
<glyph unicode="&#xd4;" horiz-adv-x="1323" d="M664 1665l-162 -203h-51l176 234h73l177 -234h-52zM672 1364q131 0 233 -39.5t162 -105.5q57 -60 92 -156q33 -88 44 -175t11 -212q0 -703 -559 -703q-131 0 -233.5 39.5t-165.5 106.5q-58 64 -92 157q-55 160 -55 386q0 702 563 702zM666 35q252 0 367.5 156.5 t115.5 506.5q0 316 -113.5 460.5t-369.5 144.5t-374 -154t-118 -500q0 -320 115.5 -467t376.5 -147z" />
<glyph unicode="&#xda;" horiz-adv-x="1343" d="M166 1337h61v-878q0 -424 445 -424q444 0 444 424v878h62v-882q0 -235 -129.5 -358.5t-376.5 -123.5q-246 0 -376 123.5t-130 358.5v882zM678 1466h-43l176 273l70 -15z" />
<glyph unicode="&#xdd;" horiz-adv-x="1099" d="M760 1724l-203 -258h-43l176 273zM1098 1337l-516 -796v-541h-62v541l-518 796h68l481 -745l479 745h68z" />
<glyph unicode="&#xe1;" horiz-adv-x="1075" d="M745 1362l-202 -258h-43l176 272zM1061 57l10 -51q-47 -33 -119 -33q-73 0 -107 44.5t-34 138.5v14q-85 -93 -196 -145t-218 -52q-128 0 -209.5 70t-81.5 190q0 176 183.5 267.5t521.5 93.5v49q0 161 -67 234t-214 73q-170 0 -356 -119l-10 52q167 118 383 118 q166 0 243.5 -91t77.5 -283v-459q0 -78 19.5 -110.5t66.5 -32.5q61 0 107 32zM811 233v310q-643 -3 -643 -305q0 -97 63.5 -155t167.5 -58q100 0 210.5 55t201.5 153z" />
<glyph unicode="&#xe4;" horiz-adv-x="1075" d="M1061 57l10 -51q-47 -33 -119 -33q-73 0 -107 44.5t-34 138.5v14q-85 -93 -196 -145t-218 -52q-128 0 -209.5 70t-81.5 190q0 176 183.5 267.5t521.5 93.5v49q0 161 -67 234t-214 73q-170 0 -356 -119l-10 52q167 118 383 118q166 0 243.5 -91t77.5 -283v-459 q0 -78 19.5 -110.5t66.5 -32.5q61 0 107 32zM811 233v310q-643 -3 -643 -305q0 -97 63.5 -155t167.5 -58q100 0 210.5 55t201.5 153zM477 1174q0 -37 -43 -37t-43 37q0 36 43 36t43 -36zM682 1174q0 -37 -43 -37t-43 37q0 36 43 36t43 -36z" />
<glyph unicode="&#xe9;" horiz-adv-x="1067" d="M772 1362l-203 -258h-43l176 272zM901 119l10 -51q-167 -95 -372 -95q-222 0 -339.5 127t-117.5 365q0 256 133 395q132 141 348 141q199 0 302.5 -119t103.5 -350q0 -33 -4 -69h-822q3 -438 416 -438q199 0 342 94zM143 512h766v4q0 434 -342 434q-58 0 -111.5 -11.5 t-109.5 -42.5t-98.5 -78.5t-71 -126t-33.5 -179.5z" />
<glyph unicode="&#xed;" horiz-adv-x="421" d="M240 0h-58v975h58v-975zM217 1104h-43l176 272l70 -14z" />
<glyph unicode="&#xf3;" horiz-adv-x="1083" d="M557 1001q220 0 332 -130t112 -384q0 -253 -120 -383.5t-353 -130.5q-220 0 -333 130.5t-113 383.5t120.5 383.5t354.5 130.5zM535 25q198 0 301.5 118t103.5 346q0 461 -391 461q-201 0 -303.5 -117t-102.5 -344q0 -464 392 -464zM559 1104h-43l176 272l70 -14z" />
<glyph unicode="&#xf4;" horiz-adv-x="1083" d="M553 1303l-162 -203h-51l176 233h74l176 -233h-51zM557 1001q220 0 332 -130t112 -384q0 -253 -120 -383.5t-353 -130.5q-220 0 -333 130.5t-113 383.5t120.5 383.5t354.5 130.5zM535 25q198 0 301.5 118t103.5 346q0 461 -391 461q-201 0 -303.5 -117t-102.5 -344 q0 -464 392 -464z" />
<glyph unicode="&#xfa;" horiz-adv-x="1114" d="M760 1362l-203 -258h-43l176 272zM897 975h57v-975h-45l-10 190q-156 -217 -418 -217q-164 0 -249 92.5t-85 272.5v637h58v-629q0 -165 67 -243t207 -78q249 0 418 233v717z" />
<glyph unicode="&#xfd;" d="M696 1362l-202 -258h-43l176 272zM895 975h59l-559 -1286q-41 -95 -85.5 -134.5t-108.5 -39.5q-67 0 -115 28l10 51q48 -28 111 -28q44 0 74.5 29.5t66.5 105.5l125 291l-29 -6l-426 989h60l407 -950z" />
<glyph unicode="&#x10c;" horiz-adv-x="1189" d="M733 1462h-74l-176 234l45 8l168 -211l168 211l45 -8zM1096 129l12 -61q-207 -95 -418 -95q-287 0 -434 174.5t-147 514.5q0 346 149 524t442 178q217 0 406 -92l-12 -62q-200 93 -392 93q-259 0 -393.5 -165t-134.5 -481q0 -307 136 -464.5t397 -157.5q202 0 389 94z " />
<glyph unicode="&#x10d;" d="M592 1100h-74l-176 233l45 8l168 -211l168 211l45 -8zM860 92l10 -51q-145 -68 -317 -68q-234 0 -352.5 130.5t-118.5 373.5q0 248 118.5 386t354.5 138q179 0 309 -65l-10 -51q-127 65 -276 65q-435 0 -435 -458q0 -239 103.5 -353t318.5 -114q146 0 295 67z" />
<glyph unicode="&#x10e;" horiz-adv-x="1292" d="M614 1462h-73l-176 234l45 8l168 -211l167 211l46 -8zM195 0v1337h374q321 0 473 -163t152 -506q0 -344 -152 -506t-473 -162h-374zM256 1280v-1223h309q290 0 426.5 149.5t136.5 467.5q0 312 -136.5 459t-426.5 147h-309z" />
<glyph unicode="&#x10f;" horiz-adv-x="1087" d="M870 883v551h58v-1434h-45l-11 195q-74 -101 -180.5 -161.5t-222.5 -60.5q-180 0 -283 140q-100 138 -100 366q0 244 117 383t315 139q207 0 352 -118zM1051 1434h79l-51 -269h-28v269zM870 258v573q-168 119 -354 119q-173 0 -271 -125t-98 -346q0 -211 84.5 -332.5 t241.5 -121.5q222 0 397 233z" />
<glyph unicode="&#x11a;" horiz-adv-x="1187" d="M678 1462h-74l-176 234l45 8l168 -211l168 211l45 -8zM1085 1280h-829v-559h717v-57h-717v-607h829v-57h-890v1337h890v-57z" />
<glyph unicode="&#x11b;" horiz-adv-x="1067" d="M600 1100h-74l-176 233l45 8l168 -211l168 211l45 -8zM901 119l10 -51q-167 -95 -372 -95q-222 0 -339.5 127t-117.5 365q0 256 133 395q132 141 348 141q199 0 302.5 -119t103.5 -350q0 -33 -4 -69h-822q3 -438 416 -438q199 0 342 94zM143 512h766v4q0 434 -342 434 q-58 0 -111.5 -11.5t-109.5 -42.5t-98.5 -78.5t-71 -126t-33.5 -179.5z" />
<glyph unicode="&#x139;" horiz-adv-x="1110" d="M434 1724l-203 -258h-43l177 273zM256 57h793v-57h-854v1337h61v-1280z" />
<glyph unicode="&#x13a;" horiz-adv-x="376" d="M217 0h-57v1434h57v-1434zM195 1516h-43l176 272l69 -14z" />
<glyph unicode="&#x13d;" horiz-adv-x="1110" d="M256 57h793v-57h-854v1337h61v-1280zM481 1337l-51 -268h-29v268h80z" />
<glyph unicode="&#x13e;" horiz-adv-x="376" d="M217 0h-57v1434h57v-1434zM420 1434l-51 -269h-29v269h80z" />
<glyph unicode="&#x147;" horiz-adv-x="1390" d="M733 1462h-74l-176 234l45 8l168 -211l168 211l45 -8zM1135 1337h61v-1337h-78l-862 1264v-1264h-61v1337h81l859 -1261v1261z" />
<glyph unicode="&#x148;" horiz-adv-x="1116" d="M643 1100h-74l-176 233l45 8l168 -211l168 211l45 -8zM160 975h45l10 -195q75 104 184 162.5t228 58.5q160 0 250 -94.5t90 -269.5v-637h-58v629q0 158 -75 239.5t-211 81.5q-110 0 -217 -61.5t-189 -171.5v-717h-57v975z" />
<glyph unicode="&#x154;" horiz-adv-x="1226" d="M801 1724l-203 -258h-43l176 273zM1055 0l-408 569h-391v-569h-61v1337h483q438 0 438 -385q0 -365 -401 -383l411 -569h-71zM256 1280v-653h424q371 0 371 327q0 160 -94 243t-277 83h-424z" />
<glyph unicode="&#x155;" horiz-adv-x="647" d="M588 1362l-203 -258h-43l176 272zM205 975l12 -227v-3q126 256 399 256v-53q-267 0 -399 -286v-662h-57v975h45z" />
<glyph unicode="&#x158;" horiz-adv-x="1226" d="M629 1462h-74l-176 234l45 8l168 -211l168 211l45 -8zM1055 0l-408 569h-391v-569h-61v1337h483q438 0 438 -385q0 -365 -401 -383l411 -569h-71zM256 1280v-653h424q371 0 371 327q0 160 -94 243t-277 83h-424z" />
<glyph unicode="&#x159;" horiz-adv-x="647" d="M416 1100h-74l-176 233l45 8l168 -211l168 211l45 -8zM205 975l12 -227v-3q126 256 399 256v-53q-267 0 -399 -286v-662h-57v975h45z" />
<glyph unicode="&#x160;" horiz-adv-x="1173" d="M629 1462h-74l-176 234l45 8l168 -211l168 211l45 -8zM999 1276l-12 -62q-176 89 -403 89q-192 0 -297 -71t-105 -200q0 -67 30.5 -118.5t81.5 -83.5t117.5 -57t140.5 -44.5t147.5 -40t140 -50t117.5 -68t81.5 -100t30.5 -140.5q0 -171 -137 -264t-393 -93 q-238 0 -424 88l12 62q175 -88 403 -88t351 76.5t123 216.5q0 68 -30.5 120t-81.5 84.5t-117.5 57.5t-140.5 45t-147.5 41t-140 50.5t-117.5 68t-81.5 99.5t-30.5 140q0 160 123 245t352 85q221 0 407 -88z" />
<glyph unicode="&#x161;" horiz-adv-x="931" d="M537 1100h-74l-176 233l45 8l168 -211l168 211l45 -8zM782 958l-10 -51q-113 43 -264 43q-162 0 -257 -49.5t-95 -150.5q0 -152 241 -201q8 -1 24 -4q43 -7 66 -11t65 -13t66 -16.5t59.5 -20.5t56 -26.5t44.5 -33t37 -42t21.5 -51.5t7.5 -63q0 -135 -110.5 -215 t-299.5 -80q-191 0 -346 82l10 51q161 -81 336 -81q159 0 254.5 64.5t95.5 170.5q0 83 -66 133t-177 70q-21 4 -60 11.5t-62.5 12.5t-60 13.5t-59.5 16t-53.5 20t-50 26t-40 32t-32.5 40t-19.5 49t-7.5 59.5q0 126 105 192t299 66q157 0 282 -43z" />
<glyph unicode="&#x164;" horiz-adv-x="1212" d="M643 1462h-74l-176 234l45 8l168 -211l168 211l45 -8zM1122 1337v-57h-485v-1280h-62v1280h-485v57h1032z" />
<glyph unicode="&#x165;" horiz-adv-x="641" d="M510 1434l-51 -269h-29v269h80zM537 57l10 -51q-50 -33 -135 -33q-86 0 -125 43t-39 140v770h-187v43l187 6l12 272h45v-272h203v-49h-203v-758q-6 -73 26.5 -109.5t86.5 -35t119 33.5z" />
<glyph unicode="&#x16e;" horiz-adv-x="1343" d="M670 1827q88 0 141 -51t53 -136q0 -84 -53 -134t-141 -50q-87 0 -139 50t-52 134q0 85 52.5 136t138.5 51zM528 1640q0 -61 40.5 -99t103.5 -38t103 38t40 99q0 63 -38.5 101.5t-104.5 38.5t-105 -38.5t-39 -101.5zM166 1337h61v-878q0 -424 445 -424q444 0 444 424v878 h62v-882q0 -235 -129.5 -358.5t-376.5 -123.5q-246 0 -376 123.5t-130 358.5v882z" />
<glyph unicode="&#x16f;" horiz-adv-x="1114" d="M549 1094q-87 0 -139 50t-52 134q0 85 52.5 135.5t138.5 50.5q88 0 141 -50.5t53 -135.5q0 -82 -53.5 -133t-140.5 -51zM408 1278q0 -61 40 -99t103 -38t103 38t40 99q0 63 -38.5 101t-104.5 38t-104.5 -38t-38.5 -101zM897 975h57v-975h-45l-10 190q-156 -217 -418 -217 q-164 0 -249 92.5t-85 272.5v637h58v-629q0 -165 67 -243t207 -78q249 0 418 233v717z" />
<glyph unicode="&#x17d;" horiz-adv-x="1175" d="M625 1462h-74l-176 234l45 8l168 -211l168 211l45 -8zM1092 1337v-51l-932 -1229h932v-57h-1008v53l932 1227h-916v57h992z" />
<glyph unicode="&#x17e;" d="M520 1100h-74l-176 233l45 8l168 -211l168 211l45 -8zM889 975v-43l-742 -883h742v-49h-807l-8 39l743 887h-739v49h811z" />
<glyph unicode="&#x2c6;" horiz-adv-x="425" d="M426 1073h-51l-162 203l-162 -203h-51l176 234h74z" />
<glyph unicode="&#x2da;" horiz-adv-x="385" d="M190 1438q88 0 141.5 -51t53.5 -136q0 -84 -53.5 -134t-141.5 -50q-87 0 -138.5 50t-51.5 134q0 85 52 136t138 51zM49 1251q0 -61 40.5 -99t103.5 -38t103 38t40 99q0 63 -38.5 101.5t-104.5 38.5t-105 -38.5t-39 -101.5z" />
<glyph unicode="&#x2dc;" horiz-adv-x="393" d="M354 1200l39 -8q0 -47 -30 -74.5t-78 -27.5q-50 0 -101 32q-53 35 -80 35q-29 0 -47 -18t-18 -45l-39 8q0 47 30.5 74.5t78.5 27.5q45 0 98 -35q51 -32 82 -32q29 0 47 18t18 45z" />
<glyph unicode="&#x2000;" horiz-adv-x="913" />
<glyph unicode="&#x2001;" horiz-adv-x="1827" />
<glyph unicode="&#x2002;" horiz-adv-x="913" />
<glyph unicode="&#x2003;" horiz-adv-x="1827" />
<glyph unicode="&#x2004;" horiz-adv-x="609" />
<glyph unicode="&#x2005;" horiz-adv-x="456" />
<glyph unicode="&#x2006;" horiz-adv-x="304" />
<glyph unicode="&#x2007;" horiz-adv-x="304" />
<glyph unicode="&#x2008;" horiz-adv-x="228" />
<glyph unicode="&#x2009;" horiz-adv-x="365" />
<glyph unicode="&#x200a;" horiz-adv-x="101" />
<glyph unicode="&#x2010;" horiz-adv-x="700" d="M96 567h508v-49h-508v49z" />
<glyph unicode="&#x2011;" horiz-adv-x="700" d="M96 567h508v-49h-508v49z" />
<glyph unicode="&#x2012;" horiz-adv-x="700" d="M96 567h508v-49h-508v49z" />
<glyph unicode="&#x2013;" horiz-adv-x="1003" d="M72 567h860v-49h-860v49z" />
<glyph unicode="&#x2014;" horiz-adv-x="1345" d="M20 567h1305v-49h-1305v49z" />
<glyph unicode="&#x2018;" horiz-adv-x="270" d="M186 1440l43 -8l-63 -328h-84z" />
<glyph unicode="&#x2019;" horiz-adv-x="208" d="M84 1098l-43 8l63 328h84z" />
<glyph unicode="&#x201a;" horiz-adv-x="208" d="M84 -270l-43 8l63 328h84z" />
<glyph unicode="&#x201c;" horiz-adv-x="436" d="M186 1440l43 -8l-63 -328h-84zM352 1440l43 -8l-63 -328h-84z" />
<glyph unicode="&#x201d;" horiz-adv-x="374" d="M84 1098l-43 8l63 328h84zM250 1098l-43 8l63 328h84z" />
<glyph unicode="&#x201e;" horiz-adv-x="374" d="M84 -270l-43 8l63 328h84zM250 -270l-43 8l63 328h84z" />
<glyph unicode="&#x2026;" horiz-adv-x="966" d="M154 35q0 53 55 53t55 -53q0 -51 -55 -51t-55 51zM428 35q0 53 55 53q56 0 56 -53q0 -51 -56 -51q-55 0 -55 51zM702 35q0 53 56 53q55 0 55 -53q0 -51 -55 -51q-56 0 -56 51z" />
<glyph unicode="&#x202f;" horiz-adv-x="365" />
<glyph unicode="&#x2039;" horiz-adv-x="403" d="M301 872l-182 -344l182 -344h-49l-201 344l201 344h49z" />
<glyph unicode="&#x203a;" horiz-adv-x="403" d="M152 872l200 -344l-200 -344h-50l183 344l-183 344h50z" />
<glyph unicode="&#x205f;" horiz-adv-x="456" />
<glyph unicode="&#x20ac;" horiz-adv-x="1280" d="M788 768l-10 -49h-747v49h174q23 295 171 445.5t417 150.5q216 0 405 -92l-12 -62q-200 93 -391 93q-235 0 -368.5 -136t-156.5 -399h518zM758 606l-10 -49h-478q44 -522 529 -522q196 0 393 96v-68q-203 -90 -410 -90q-263 0 -410 148.5t-167 435.5h-174v49h727z" />
<glyph unicode="&#x2122;" horiz-adv-x="1253" d="M61 1290v47h459v-47h-203v-536h-53v536h-203zM1171 754h-49l-59 473l-176 -473h-62l-176 477l-59 -477h-49l69 583h56l190 -538l191 538h55z" />
<glyph unicode="&#x25fc;" d="M0 973h973v-973h-973v973z" />
</font>
</defs>
</svg>
