<svg xmlns="http://www.w3.org/2000/svg" xmlns:xlink="http://www.w3.org/1999/xlink" x="0px" y="0px" width="19.2px" height="12px" viewBox="0 0 19.2 12">
<g>
	<g>
		<path d="M7.7,5.4c0,0,1.8-0.1,1.8-2.2S8.1,0,6.2,0H0v11.8h6.2c0,0,3.8,0.1,3.8-3.5C10,8.3,10.1,5.4,7.7,5.4z M2.7,2.1
			h3.5c0,0,0.8,0,0.8,1.2C7,4.5,6.5,4.7,6,4.7H2.7V2.1z M6,9.7c-0.1,0-0.2,0-0.2,0H2.7V6.5h3.5c0,0,1.3,0,1.3,1.6
			C7.5,9.5,6.5,9.7,6,9.7z M15,3c-4.6,0-4.6,4.5-4.6,4.5S10.1,12,15,12c0,0,4.1,0.2,4.1-3.1H17c0,0,0.1,1.3-1.9,1.3
			c0,0-2.1,0.1-2.1-2h6.2C19.2,8.1,19.8,3,15,3z M13,6.5c0,0,0.3-1.8,2.1-1.8c1.8,0,1.8,1.8,1.8,1.8H13z M17.4,0.7h-4.9v1.4h4.9V0.7
			z" fill="#3D3D3D" />
	</g>
</g>
</svg>
