<svg xmlns="http://www.w3.org/2000/svg" xmlns:xlink="http://www.w3.org/1999/xlink" x="0px" y="0px" width="47px" height="28px" viewBox="0 0 47 28">
<g>
	<g>
		<path fill="#EF3F2B" d="M16,8.5c2.3,0.5,4.6-1.1,5.1-3.4c0.5-2.3-1.1-4.6-3.4-5c-2.3-0.5-4.6,1.1-5.1,3.4S13.7,8,16,8.5z M13.2,16.5
			c1-0.6,1.7-1.6,2-2.8c0.5-2.3-1.1-4.6-3.4-5c-2.4-0.5-4.7,1-5.1,3.3c0,0.2-0.1,0.5-0.1,0.7l0,0c0,0,0,4.8-4.5,7.3l0,0
			c-1,0.6-1.8,1.6-2,2.8c-0.5,2.3,1.1,4.6,3.4,5c2.3,0.5,4.6-1.1,5.1-3.4c0-0.2,0.1-0.4,0.1-0.7l0,0C8.7,23.9,8.6,19.2,13.2,16.5
			L13.2,16.5z M46.9,22.9c-0.2-1.2-1-2.2-2-2.8l0,0c-4.5-2.5-4.5-7.3-4.5-7.3l0,0v-0.1c0-0.1,0-0.1,0-0.2s0-0.2,0-0.3v-0.1l0,0
			c0-0.1-0.1-0.2-0.1-0.4c0,0,0,0,0-0.1s-0.1-0.2-0.1-0.3c-0.2-0.4-0.4-0.8-0.6-1.1c0,0,0,0,0-0.1c-0.1-0.1-0.1-0.1-0.2-0.2
			l-0.1-0.1l-0.1-0.1c-0.1-0.1-0.1-0.1-0.2-0.2l0,0c-0.4-0.3-0.8-0.5-1.2-0.7c-0.1,0-0.2-0.1-0.3-0.1c0,0,0,0-0.1,0
			c-0.1,0-0.2-0.1-0.4-0.1l0,0c0,0,0,0-0.1,0c-0.1,0-0.2,0-0.4-0.1c-0.1,0-0.1,0-0.2,0c-0.1,0-0.2,0-0.3,0s-0.2,0-0.3,0
			c-0.1,0-0.1,0-0.2,0s-0.2,0-0.4,0.1c0,0,0,0-0.1,0l0,0c-0.1,0-0.2,0.1-0.4,0.1c0,0,0,0-0.1,0s-0.2,0.1-0.3,0.1
			C33.8,9,33.4,9.2,33,9.5l0,0c-0.1,0.1-0.1,0.1-0.2,0.2l-0.1,0.1l-0.1,0.1c-0.1,0.1-0.1,0.1-0.2,0.2l0,0c-0.3,0.3-0.5,0.7-0.7,1.1
			c0,0.1-0.1,0.2-0.1,0.3c0,0,0,0,0,0.1s-0.1,0.2-0.1,0.4l0,0c0,0,0,0,0,0.1s0,0.2-0.1,0.3c0,0.1,0,0.1,0,0.2v0.1l0,0
			c0,0,0,3.1-2.3,5.6c-2.3-2.5-2.3-5.6-2.3-5.6l0,0c0-0.2,0-0.5-0.1-0.7c-0.4-1.9-2-3.3-3.9-3.4c0,0,0,0-0.1,0c-0.1,0-0.2,0-0.3,0
			s-0.2,0-0.3,0c0,0,0,0-0.1,0c-1.9,0.2-3.5,1.5-3.9,3.4c0,0.2-0.1,0.5-0.1,0.7l0,0c0,0,0,4.8-4.5,7.3l0,0c-1,0.6-1.8,1.6-2,2.8
			c-0.5,2.3,1.1,4.6,3.4,5c2.3,0.5,4.6-1.1,5.1-3.4c0-0.2,0.1-0.4,0.1-0.7l0,0c0,0,0-3,2.3-5.6c2,2.2,2.2,4.8,2.3,5.4v0.1
			c0,0.1,0,0.1,0,0.1l0,0v0.1c0,0.1,0,0.1,0,0.2s0,0.2,0.1,0.3c0,0,0,0,0,0.1l0,0c0,0.1,0.1,0.2,0.1,0.4c0,0,0,0,0,0.1
			c0,0.1,0.1,0.2,0.1,0.3c0.2,0.5,0.5,1,0.9,1.4l0.1,0.1l0.1,0.1c0.1,0.1,0.1,0.1,0.2,0.2c0,0,0,0,0.1,0c0.3,0.3,0.7,0.5,1.1,0.6
			c0.1,0,0.2,0.1,0.3,0.1h0.1c0.1,0,0.2,0.1,0.4,0.1l0,0h0.1c0.1,0,0.2,0,0.3,0c0.1,0,0.1,0,0.2,0c0.1,0,0.2,0,0.3,0
			c0.1,0,0.2,0,0.3,0s0.1,0,0.2,0c0.1,0,0.2,0,0.3,0h0.1l0,0c0.1,0,0.2-0.1,0.4-0.1c0,0,0,0,0.1,0c0.1,0,0.2-0.1,0.3-0.1
			c0.4-0.2,0.8-0.4,1.1-0.6c0,0,0,0,0.1,0c0.1-0.1,0.1-0.1,0.2-0.2l0.1-0.1l0.1-0.1c0.1-0.1,0.1-0.1,0.2-0.2l0,0
			c0.3-0.3,0.5-0.7,0.7-1.1c0-0.1,0.1-0.2,0.1-0.3l0,0c0-0.1,0.1-0.3,0.1-0.4l0,0c0,0,0,0,0-0.1s0-0.2,0.1-0.4c0-0.1,0-0.1,0-0.2
			v-0.1l0,0c0,0,0,0,0-0.1l0,0c0-0.6,0.3-3.2,2.3-5.4c2.3,2.6,2.3,5.6,2.3,5.6l0,0c0,0.2,0,0.4,0.1,0.7c0.5,2.3,2.7,3.8,5.1,3.4
			C45.9,27.5,47.4,25.2,46.9,22.9z"/>
	</g>
</g>
</svg>
