<svg xmlns="http://www.w3.org/2000/svg" xmlns:xlink="http://www.w3.org/1999/xlink" x="0px" y="0px"
	 width="24px" height="16px" viewBox="0 0 24 16">
<path fill="#3D3D3D" d="M23.6,5.5c-0.9,1.7-2.8,2.3-4.7,3.2v3.7c0,0.5-0.7,3.6-3.3,3.6c-2.6,0-3.5-1.5-3.5-2.1v-3.5
	c-0.3-0.1-0.5-0.1-0.8-0.3v3.7c0,0.6-1,1.5-2.3,1.5s-3.8-1.8-3.8-3v-4c0,0-3.5-1.3-4.3-2.3c-0.8-1-1.2-1.4-1-1.9
	c0.2-0.6,2.8,1.6,4.3,1.9c1.5,0.4,4.1,0.5,5.3,0.5c1.1,0,1.7,0.4,2.4,1c0,0,0.1,0.1,0.1,0.1V7.2c0-0.5,1.4-0.7,2.3-0.7h3.8
	c0.4,0,3.9-1.1,4.7-2C23.7,3.6,24.5,3.8,23.6,5.5 M15.7,5.2c1.5,0,2.6-1.2,2.6-2.6c0-1.4-1.2-2.6-2.6-2.6C14.2,0,13,1.2,13,2.6
	C13,4.1,14.2,5.2,15.7,5.2 M8.7,5.2c1.5,0,2.6-1.2,2.6-2.6c0-1.4-1.2-2.6-2.6-2.6C7.2,0,6,1.2,6,2.6C6,4.1,7.2,5.2,8.7,5.2"/>
</svg>
