<svg xmlns="http://www.w3.org/2000/svg" xmlns:xlink="http://www.w3.org/1999/xlink" x="0px" y="0px" width="11px" height="20px" viewBox="4.5 -4 11 20">
    <g>
        <g transform="translate(-44.000000, -48.000000)">
            <g transform="translate(44.000000, 48.500000)">
                <path d="M15.5,10c0,3-2.5,5.5-5.5,5.5S4.5,13,4.5,10V-0.5c0-2.2,1.8-4,4-4s4,1.8,4,4V8c0,1.4-1.1,2.5-2.5,2.5
                    S7.5,9.4,7.5,8V0.5H9V8c0,0.6,0.4,1,1,1s1-0.4,1-1v-8.5C11-1.9,9.9-3,8.5-3S6-1.9,6-0.5V10c0,2.2,1.8,4,4,4s4-1.8,4-4V0.5h1.5V10
                    L15.5,10z"/>
            </g>
        </g>
    </g>
</svg>
