<svg xmlns="http://www.w3.org/2000/svg" xmlns:xlink="http://www.w3.org/1999/xlink" x="0px" y="0px"
	 width="19.2px" height="12.8px" viewBox="0 0 19.2 12.8">
<path fill="#3D3D3D" d="M17,5.7c1.1-0.1,1.8-0.6,2.1-1.2c-0.4,0.2-1.6,0.5-2.3,0.2c0-0.2-0.1-0.3-0.1-0.4c-0.5-1.8-2.2-3.3-4.1-3.1
	c0.1-0.1,0.3-0.1,0.4-0.2c0.2-0.1,1.4-0.3,1.2-0.7c-0.2-0.4-1.6,0.3-1.9,0.3c0.4-0.1,0.9-0.4,1-0.8c-0.5,0.1-1.1,0.3-1.5,0.7
	c0.2-0.2,0.3-0.3,0.3-0.6c-1.5,0.9-2.3,2.7-3,4.5c-0.5-0.5-1-0.9-1.5-1.1C6.6,2.9,5.1,2.2,2.9,1.4C2.8,2.1,3.2,3.1,4.5,3.7
	c-0.3,0-0.8,0-1.2,0.1C3.5,4.7,4,5.4,5.5,5.7c-0.7,0-1,0.2-1.3,0.5c0.3,0.6,1,1.3,2.4,1.1C5,8,5.9,9.1,7.1,8.9c-2,2-5.3,1.9-7.1,0.2
	c4.8,6.4,15.3,3.8,16.9-2.4c1.2,0,1.9-0.4,2.3-0.8C18.5,6,17.5,5.9,17,5.7"/>
</svg>
